<!-- Created with Inkscape (http://www.inkscape.org/) --><svg xmlns:dc="http://purl.org/dc/elements/1.1/" xmlns:cc="http://creativecommons.org/ns#" xmlns:rdf="http://www.w3.org/1999/02/22-rdf-syntax-ns#" xmlns:svg="http://www.w3.org/2000/svg" xmlns="http://www.w3.org/2000/svg" xmlns:sodipodi="http://sodipodi.sourceforge.net/DTD/sodipodi-0.dtd" xmlns:inkscape="http://www.inkscape.org/namespaces/inkscape" sodipodi:docname="test.svg" inkscape:version="0.92.2 (5c3e80d, 2017-08-06)" version="1.1" id="svg8084" viewBox="0.0 0.0 793.700787403 1122.51968501" height="1122.51968506" width="793.700787417">
  <sodipodi:namedview inkscape:window-maximized="1" inkscape:window-y="0" inkscape:window-x="0" inkscape:window-height="719" inkscape:window-width="1366" showgrid="false" inkscape:current-layer="svg8084" inkscape:document-units="px" inkscape:cy="714.45145" inkscape:cx="-113.30561" inkscape:zoom="0.7" inkscape:pageshadow="2" inkscape:pageopacity="0.0" borderopacity="1.0" bordercolor="#666666" pagecolor="#ffffff" id="base"/>
  <defs id="defs8086"/>
  <metadata id="metadata8089">
    <rdf:RDF>
      <cc:Work rdf:about="">
        <dc:format>image/svg+xml</dc:format>
        <dc:type rdf:resource="http://purl.org/dc/dcmitype/StillImage"/>
        <dc:title/>
      </cc:Work>
    </rdf:RDF>
  </metadata>
  <g transform="matrix(1.066667,0.000000,0.000000,1.066667,0.000000,0.000000)" id="layer1" inkscape:groupmode="layer" inkscape:label="Layer 1"/>
<svg:g inkscape:label="Hex Fill" inkscape:groupmode="layer"><polygon points="183.520695,0.666667 244.472037,106.237489 183.520695,211.808311 61.618009,211.808311 0.666667,106.237489 61.618009,0.666667" style="stroke:none;fill:#ffffff;fill-opacity:1" stroke-width="1.33333333333" stroke-linecap="round" id="hexfill_1_1"/><polygon points="183.520695,211.808311 244.472037,317.379133 183.520695,422.949956 61.618009,422.949956 0.666667,317.379133 61.618009,211.808311" style="stroke:none;fill:#ffffff;fill-opacity:1" stroke-width="1.33333333333" stroke-linecap="round" id="hexfill_1_2"/><polygon points="183.520695,422.949956 244.472037,528.520778 183.520695,634.091600 61.618009,634.091600 0.666667,528.520778 61.618009,422.949956" style="stroke:none;fill:#ffffff;fill-opacity:1" stroke-width="1.33333333333" stroke-linecap="round" id="hexfill_1_3"/><polygon points="183.520695,634.091600 244.472037,739.662422 183.520695,845.233244 61.618009,845.233244 0.666667,739.662422 61.618009,634.091600" style="stroke:none;fill:#ffffff;fill-opacity:1" stroke-width="1.33333333333" stroke-linecap="round" id="hexfill_1_4"/><polygon points="366.374722,106.237489 427.326065,211.808311 366.374722,317.379133 244.472037,317.379133 183.520695,211.808311 244.472037,106.237489" style="stroke:none;fill:#ffffff;fill-opacity:1" stroke-width="1.33333333333" stroke-linecap="round" id="hexfill_2_1"/><polygon points="366.374722,317.379133 427.326065,422.949956 366.374722,528.520778 244.472037,528.520778 183.520695,422.949956 244.472037,317.379133" style="stroke:none;fill:#ffffff;fill-opacity:1" stroke-width="1.33333333333" stroke-linecap="round" id="hexfill_2_2"/><polygon points="366.374722,528.520778 427.326065,634.091600 366.374722,739.662422 244.472037,739.662422 183.520695,634.091600 244.472037,528.520778" style="stroke:none;fill:#ffffff;fill-opacity:1" stroke-width="1.33333333333" stroke-linecap="round" id="hexfill_2_3"/><polygon points="366.374722,739.662422 427.326065,845.233244 366.374722,950.804067 244.472037,950.804067 183.520695,845.233244 244.472037,739.662422" style="stroke:none;fill:#ffffff;fill-opacity:1" stroke-width="1.33333333333" stroke-linecap="round" id="hexfill_2_4"/><polygon points="549.228750,0.666667 610.180093,106.237489 549.228750,211.808311 427.326065,211.808311 366.374722,106.237489 427.326065,0.666667" style="stroke:none;fill:#ffffff;fill-opacity:1" stroke-width="1.33333333333" stroke-linecap="round" id="hexfill_3_1"/><polygon points="549.228750,211.808311 610.180093,317.379133 549.228750,422.949956 427.326065,422.949956 366.374722,317.379133 427.326065,211.808311" style="stroke:none;fill:#ffffff;fill-opacity:1" stroke-width="1.33333333333" stroke-linecap="round" id="hexfill_3_2"/><polygon points="549.228750,422.949956 610.180093,528.520778 549.228750,634.091600 427.326065,634.091600 366.374722,528.520778 427.326065,422.949956" style="stroke:none;fill:#ffffff;fill-opacity:1" stroke-width="1.33333333333" stroke-linecap="round" id="hexfill_3_3"/><polygon points="549.228750,634.091600 610.180093,739.662422 549.228750,845.233244 427.326065,845.233244 366.374722,739.662422 427.326065,634.091600" style="stroke:none;fill:#ffffff;fill-opacity:1" stroke-width="1.33333333333" stroke-linecap="round" id="hexfill_3_4"/><polygon points="732.082778,106.237489 793.034121,211.808311 732.082778,317.379133 610.180093,317.379133 549.228750,211.808311 610.180093,106.237489" style="stroke:none;fill:#ffffff;fill-opacity:1" stroke-width="1.33333333333" stroke-linecap="round" id="hexfill_4_1"/><polygon points="732.082778,317.379133 793.034121,422.949956 732.082778,528.520778 610.180093,528.520778 549.228750,422.949956 610.180093,317.379133" style="stroke:none;fill:#ffffff;fill-opacity:1" stroke-width="1.33333333333" stroke-linecap="round" id="hexfill_4_2"/><polygon points="732.082778,528.520778 793.034121,634.091600 732.082778,739.662422 610.180093,739.662422 549.228750,634.091600 610.180093,528.520778" style="stroke:none;fill:#ffffff;fill-opacity:1" stroke-width="1.33333333333" stroke-linecap="round" id="hexfill_4_3"/><polygon points="732.082778,739.662422 793.034121,845.233244 732.082778,950.804067 610.180093,950.804067 549.228750,845.233244 610.180093,739.662422" style="stroke:none;fill:#ffffff;fill-opacity:1" stroke-width="1.33333333333" stroke-linecap="round" id="hexfill_4_4"/></svg:g><svg:g inkscape:label="Hex Circles" inkscape:groupmode="layer"><circle cx="122.56935191" cy="106.237488877" r="105.570822211" fill="black" id="hexcircle_1_1"/><circle cx="122.56935191" cy="317.379133298" r="105.570822211" fill="black" id="hexcircle_1_2"/><circle cx="122.56935191" cy="528.520777719" r="105.570822211" fill="black" id="hexcircle_1_3"/><circle cx="122.56935191" cy="739.66242214" r="105.570822211" fill="black" id="hexcircle_1_4"/><circle cx="305.423379776" cy="211.808311088" r="105.570822211" fill="black" id="hexcircle_2_1"/><circle cx="305.423379776" cy="422.949955509" r="105.570822211" fill="black" id="hexcircle_2_2"/><circle cx="305.423379776" cy="634.09159993" r="105.570822211" fill="black" id="hexcircle_2_3"/><circle cx="305.423379776" cy="845.233244351" r="105.570822211" fill="black" id="hexcircle_2_4"/><circle cx="488.277407641" cy="106.237488877" r="105.570822211" fill="black" id="hexcircle_3_1"/><circle cx="488.277407641" cy="317.379133298" r="105.570822211" fill="black" id="hexcircle_3_2"/><circle cx="488.277407641" cy="528.520777719" r="105.570822211" fill="black" id="hexcircle_3_3"/><circle cx="488.277407641" cy="739.66242214" r="105.570822211" fill="black" id="hexcircle_3_4"/><circle cx="671.131435507" cy="211.808311088" r="105.570822211" fill="black" id="hexcircle_4_1"/><circle cx="671.131435507" cy="422.949955509" r="105.570822211" fill="black" id="hexcircle_4_2"/><circle cx="671.131435507" cy="634.09159993" r="105.570822211" fill="black" id="hexcircle_4_3"/><circle cx="671.131435507" cy="845.233244351" r="105.570822211" fill="black" id="hexcircle_4_4"/></svg:g><svg:g inkscape:label="Hex Grid" inkscape:groupmode="layer" style="display:none"><line x1="61.6180092885" y1="0.666666666665" x2="183.520694532" y2="0.666666666665" stroke="black" stroke-width="1.33333333333" stroke-linecap="round"/><line x1="61.6180092885" y1="0.666666666665" x2="0.666666666665" y2="106.237488877" stroke="black" stroke-width="1.33333333333" stroke-linecap="round"/><line x1="183.520694532" y1="0.666666666665" x2="244.472037154" y2="106.237488877" stroke="black" stroke-width="1.33333333333" stroke-linecap="round"/><line x1="0.666666666665" y1="106.237488877" x2="61.6180092885" y2="211.808311088" stroke="black" stroke-width="1.33333333333" stroke-linecap="round"/><line x1="61.6180092885" y1="211.808311088" x2="183.520694532" y2="211.808311088" stroke="black" stroke-width="1.33333333333" stroke-linecap="round"/><line x1="61.6180092885" y1="211.808311088" x2="0.666666666665" y2="317.379133298" stroke="black" stroke-width="1.33333333333" stroke-linecap="round"/><line x1="0.666666666665" y1="317.379133298" x2="61.6180092885" y2="422.949955509" stroke="black" stroke-width="1.33333333333" stroke-linecap="round"/><line x1="61.6180092885" y1="422.949955509" x2="183.520694532" y2="422.949955509" stroke="black" stroke-width="1.33333333333" stroke-linecap="round"/><line x1="61.6180092885" y1="422.949955509" x2="0.666666666665" y2="528.520777719" stroke="black" stroke-width="1.33333333333" stroke-linecap="round"/><line x1="0.666666666665" y1="528.520777719" x2="61.6180092885" y2="634.09159993" stroke="black" stroke-width="1.33333333333" stroke-linecap="round"/><line x1="61.6180092885" y1="634.09159993" x2="183.520694532" y2="634.09159993" stroke="black" stroke-width="1.33333333333" stroke-linecap="round"/><line x1="61.6180092885" y1="634.09159993" x2="0.666666666665" y2="739.66242214" stroke="black" stroke-width="1.33333333333" stroke-linecap="round"/><line x1="0.666666666665" y1="739.66242214" x2="61.6180092885" y2="845.233244351" stroke="black" stroke-width="1.33333333333" stroke-linecap="round"/><line x1="61.6180092885" y1="845.233244351" x2="183.520694532" y2="845.233244351" stroke="black" stroke-width="1.33333333333" stroke-linecap="round"/><line x1="244.472037154" y1="106.237488877" x2="366.374722398" y2="106.237488877" stroke="black" stroke-width="1.33333333333" stroke-linecap="round"/><line x1="244.472037154" y1="106.237488877" x2="183.520694532" y2="211.808311088" stroke="black" stroke-width="1.33333333333" stroke-linecap="round"/><line x1="183.520694532" y1="211.808311088" x2="244.472037154" y2="317.379133298" stroke="black" stroke-width="1.33333333333" stroke-linecap="round"/><line x1="244.472037154" y1="317.379133298" x2="366.374722398" y2="317.379133298" stroke="black" stroke-width="1.33333333333" stroke-linecap="round"/><line x1="244.472037154" y1="317.379133298" x2="183.520694532" y2="422.949955509" stroke="black" stroke-width="1.33333333333" stroke-linecap="round"/><line x1="183.520694532" y1="422.949955509" x2="244.472037154" y2="528.520777719" stroke="black" stroke-width="1.33333333333" stroke-linecap="round"/><line x1="244.472037154" y1="528.520777719" x2="366.374722398" y2="528.520777719" stroke="black" stroke-width="1.33333333333" stroke-linecap="round"/><line x1="244.472037154" y1="528.520777719" x2="183.520694532" y2="634.09159993" stroke="black" stroke-width="1.33333333333" stroke-linecap="round"/><line x1="183.520694532" y1="634.09159993" x2="244.472037154" y2="739.66242214" stroke="black" stroke-width="1.33333333333" stroke-linecap="round"/><line x1="244.472037154" y1="739.66242214" x2="366.374722398" y2="739.66242214" stroke="black" stroke-width="1.33333333333" stroke-linecap="round"/><line x1="244.472037154" y1="739.66242214" x2="183.520694532" y2="845.233244351" stroke="black" stroke-width="1.33333333333" stroke-linecap="round"/><line x1="183.520694532" y1="845.233244351" x2="244.472037154" y2="950.804066561" stroke="black" stroke-width="1.33333333333" stroke-linecap="round"/><line x1="427.326065019" y1="845.233244351" x2="366.374722398" y2="950.804066561" stroke="black" stroke-width="1.33333333333" stroke-linecap="round"/><line x1="244.472037154" y1="950.804066561" x2="366.374722398" y2="950.804066561" stroke="black" stroke-width="1.33333333333" stroke-linecap="round"/><line x1="427.326065019" y1="0.666666666665" x2="549.228750263" y2="0.666666666665" stroke="black" stroke-width="1.33333333333" stroke-linecap="round"/><line x1="427.326065019" y1="0.666666666665" x2="366.374722398" y2="106.237488877" stroke="black" stroke-width="1.33333333333" stroke-linecap="round"/><line x1="549.228750263" y1="0.666666666665" x2="610.180092885" y2="106.237488877" stroke="black" stroke-width="1.33333333333" stroke-linecap="round"/><line x1="366.374722398" y1="106.237488877" x2="427.326065019" y2="211.808311088" stroke="black" stroke-width="1.33333333333" stroke-linecap="round"/><line x1="427.326065019" y1="211.808311088" x2="549.228750263" y2="211.808311088" stroke="black" stroke-width="1.33333333333" stroke-linecap="round"/><line x1="427.326065019" y1="211.808311088" x2="366.374722398" y2="317.379133298" stroke="black" stroke-width="1.33333333333" stroke-linecap="round"/><line x1="366.374722398" y1="317.379133298" x2="427.326065019" y2="422.949955509" stroke="black" stroke-width="1.33333333333" stroke-linecap="round"/><line x1="427.326065019" y1="422.949955509" x2="549.228750263" y2="422.949955509" stroke="black" stroke-width="1.33333333333" stroke-linecap="round"/><line x1="427.326065019" y1="422.949955509" x2="366.374722398" y2="528.520777719" stroke="black" stroke-width="1.33333333333" stroke-linecap="round"/><line x1="366.374722398" y1="528.520777719" x2="427.326065019" y2="634.09159993" stroke="black" stroke-width="1.33333333333" stroke-linecap="round"/><line x1="427.326065019" y1="634.09159993" x2="549.228750263" y2="634.09159993" stroke="black" stroke-width="1.33333333333" stroke-linecap="round"/><line x1="427.326065019" y1="634.09159993" x2="366.374722398" y2="739.66242214" stroke="black" stroke-width="1.33333333333" stroke-linecap="round"/><line x1="366.374722398" y1="739.66242214" x2="427.326065019" y2="845.233244351" stroke="black" stroke-width="1.33333333333" stroke-linecap="round"/><line x1="427.326065019" y1="845.233244351" x2="549.228750263" y2="845.233244351" stroke="black" stroke-width="1.33333333333" stroke-linecap="round"/><line x1="610.180092885" y1="106.237488877" x2="732.082778129" y2="106.237488877" stroke="black" stroke-width="1.33333333333" stroke-linecap="round"/><line x1="610.180092885" y1="106.237488877" x2="549.228750263" y2="211.808311088" stroke="black" stroke-width="1.33333333333" stroke-linecap="round"/><line x1="549.228750263" y1="211.808311088" x2="610.180092885" y2="317.379133298" stroke="black" stroke-width="1.33333333333" stroke-linecap="round"/><line x1="610.180092885" y1="317.379133298" x2="732.082778129" y2="317.379133298" stroke="black" stroke-width="1.33333333333" stroke-linecap="round"/><line x1="610.180092885" y1="317.379133298" x2="549.228750263" y2="422.949955509" stroke="black" stroke-width="1.33333333333" stroke-linecap="round"/><line x1="549.228750263" y1="422.949955509" x2="610.180092885" y2="528.520777719" stroke="black" stroke-width="1.33333333333" stroke-linecap="round"/><line x1="610.180092885" y1="528.520777719" x2="732.082778129" y2="528.520777719" stroke="black" stroke-width="1.33333333333" stroke-linecap="round"/><line x1="610.180092885" y1="528.520777719" x2="549.228750263" y2="634.09159993" stroke="black" stroke-width="1.33333333333" stroke-linecap="round"/><line x1="549.228750263" y1="634.09159993" x2="610.180092885" y2="739.66242214" stroke="black" stroke-width="1.33333333333" stroke-linecap="round"/><line x1="610.180092885" y1="739.66242214" x2="732.082778129" y2="739.66242214" stroke="black" stroke-width="1.33333333333" stroke-linecap="round"/><line x1="610.180092885" y1="739.66242214" x2="549.228750263" y2="845.233244351" stroke="black" stroke-width="1.33333333333" stroke-linecap="round"/><line x1="549.228750263" y1="845.233244351" x2="610.180092885" y2="950.804066561" stroke="black" stroke-width="1.33333333333" stroke-linecap="round"/><line x1="793.03412075" y1="845.233244351" x2="732.082778129" y2="950.804066561" stroke="black" stroke-width="1.33333333333" stroke-linecap="round"/><line x1="610.180092885" y1="950.804066561" x2="732.082778129" y2="950.804066561" stroke="black" stroke-width="1.33333333333" stroke-linecap="round"/><line x1="732.082778129" y1="106.237488877" x2="793.03412075" y2="211.808311088" stroke="black" stroke-width="1.33333333333" stroke-linecap="round"/><line x1="793.03412075" y1="211.808311088" x2="732.082778129" y2="317.379133298" stroke="black" stroke-width="1.33333333333" stroke-linecap="round"/><line x1="732.082778129" y1="317.379133298" x2="793.03412075" y2="422.949955509" stroke="black" stroke-width="1.33333333333" stroke-linecap="round"/><line x1="793.03412075" y1="422.949955509" x2="732.082778129" y2="528.520777719" stroke="black" stroke-width="1.33333333333" stroke-linecap="round"/><line x1="732.082778129" y1="528.520777719" x2="793.03412075" y2="634.09159993" stroke="black" stroke-width="1.33333333333" stroke-linecap="round"/><line x1="793.03412075" y1="634.09159993" x2="732.082778129" y2="739.66242214" stroke="black" stroke-width="1.33333333333" stroke-linecap="round"/><line x1="732.082778129" y1="739.66242214" x2="793.03412075" y2="845.233244351" stroke="black" stroke-width="1.33333333333" stroke-linecap="round"/></svg:g><svg:g inkscape:label="Hex Vertices" inkscape:groupmode="layer"><line x1="61.6180092885" y1="0.666666666665" x2="62.8370361409" y2="0.666666666665" stroke="black" stroke-width="1.33333333333" stroke-linecap="round"/><line x1="183.520694532" y1="0.666666666665" x2="182.30166768" y2="0.666666666665" stroke="black" stroke-width="1.33333333333" stroke-linecap="round"/><line x1="61.6180092885" y1="0.666666666665" x2="61.0084958623" y2="1.72237488877" stroke="black" stroke-width="1.33333333333" stroke-linecap="round"/><line x1="0.666666666665" y1="106.237488877" x2="1.27618009288" y2="105.181780655" stroke="black" stroke-width="1.33333333333" stroke-linecap="round"/><line x1="183.520694532" y1="0.666666666665" x2="184.130207958" y2="1.72237488877" stroke="black" stroke-width="1.33333333333" stroke-linecap="round"/><line x1="244.472037154" y1="106.237488877" x2="243.862523728" y2="105.181780655" stroke="black" stroke-width="1.33333333333" stroke-linecap="round"/><line x1="0.666666666665" y1="106.237488877" x2="1.27618009288" y2="107.293197099" stroke="black" stroke-width="1.33333333333" stroke-linecap="round"/><line x1="61.6180092885" y1="211.808311088" x2="61.0084958623" y2="210.752602866" stroke="black" stroke-width="1.33333333333" stroke-linecap="round"/><line x1="61.6180092885" y1="211.808311088" x2="62.8370361409" y2="211.808311088" stroke="black" stroke-width="1.33333333333" stroke-linecap="round"/><line x1="183.520694532" y1="211.808311088" x2="182.30166768" y2="211.808311088" stroke="black" stroke-width="1.33333333333" stroke-linecap="round"/><line x1="61.6180092885" y1="211.808311088" x2="61.0084958623" y2="212.86401931" stroke="black" stroke-width="1.33333333333" stroke-linecap="round"/><line x1="0.666666666665" y1="317.379133298" x2="1.27618009288" y2="316.323425076" stroke="black" stroke-width="1.33333333333" stroke-linecap="round"/><line x1="0.666666666665" y1="317.379133298" x2="1.27618009288" y2="318.43484152" stroke="black" stroke-width="1.33333333333" stroke-linecap="round"/><line x1="61.6180092885" y1="422.949955509" x2="61.0084958623" y2="421.894247287" stroke="black" stroke-width="1.33333333333" stroke-linecap="round"/><line x1="61.6180092885" y1="422.949955509" x2="62.8370361409" y2="422.949955509" stroke="black" stroke-width="1.33333333333" stroke-linecap="round"/><line x1="183.520694532" y1="422.949955509" x2="182.30166768" y2="422.949955509" stroke="black" stroke-width="1.33333333333" stroke-linecap="round"/><line x1="61.6180092885" y1="422.949955509" x2="61.0084958623" y2="424.005663731" stroke="black" stroke-width="1.33333333333" stroke-linecap="round"/><line x1="0.666666666665" y1="528.520777719" x2="1.27618009288" y2="527.465069497" stroke="black" stroke-width="1.33333333333" stroke-linecap="round"/><line x1="0.666666666665" y1="528.520777719" x2="1.27618009288" y2="529.576485941" stroke="black" stroke-width="1.33333333333" stroke-linecap="round"/><line x1="61.6180092885" y1="634.09159993" x2="61.0084958623" y2="633.035891708" stroke="black" stroke-width="1.33333333333" stroke-linecap="round"/><line x1="61.6180092885" y1="634.09159993" x2="62.8370361409" y2="634.09159993" stroke="black" stroke-width="1.33333333333" stroke-linecap="round"/><line x1="183.520694532" y1="634.09159993" x2="182.30166768" y2="634.09159993" stroke="black" stroke-width="1.33333333333" stroke-linecap="round"/><line x1="61.6180092885" y1="634.09159993" x2="61.0084958623" y2="635.147308152" stroke="black" stroke-width="1.33333333333" stroke-linecap="round"/><line x1="0.666666666665" y1="739.66242214" x2="1.27618009288" y2="738.606713918" stroke="black" stroke-width="1.33333333333" stroke-linecap="round"/><line x1="0.666666666665" y1="739.66242214" x2="1.27618009288" y2="740.718130362" stroke="black" stroke-width="1.33333333333" stroke-linecap="round"/><line x1="61.6180092885" y1="845.233244351" x2="61.0084958623" y2="844.177536129" stroke="black" stroke-width="1.33333333333" stroke-linecap="round"/><line x1="61.6180092885" y1="845.233244351" x2="62.8370361409" y2="845.233244351" stroke="black" stroke-width="1.33333333333" stroke-linecap="round"/><line x1="183.520694532" y1="845.233244351" x2="182.30166768" y2="845.233244351" stroke="black" stroke-width="1.33333333333" stroke-linecap="round"/><line x1="244.472037154" y1="106.237488877" x2="245.691064006" y2="106.237488877" stroke="black" stroke-width="1.33333333333" stroke-linecap="round"/><line x1="366.374722398" y1="106.237488877" x2="365.155695545" y2="106.237488877" stroke="black" stroke-width="1.33333333333" stroke-linecap="round"/><line x1="244.472037154" y1="106.237488877" x2="243.862523728" y2="107.293197099" stroke="black" stroke-width="1.33333333333" stroke-linecap="round"/><line x1="183.520694532" y1="211.808311088" x2="184.130207958" y2="210.752602866" stroke="black" stroke-width="1.33333333333" stroke-linecap="round"/><line x1="183.520694532" y1="211.808311088" x2="184.130207958" y2="212.86401931" stroke="black" stroke-width="1.33333333333" stroke-linecap="round"/><line x1="244.472037154" y1="317.379133298" x2="243.862523728" y2="316.323425076" stroke="black" stroke-width="1.33333333333" stroke-linecap="round"/><line x1="244.472037154" y1="317.379133298" x2="245.691064006" y2="317.379133298" stroke="black" stroke-width="1.33333333333" stroke-linecap="round"/><line x1="366.374722398" y1="317.379133298" x2="365.155695545" y2="317.379133298" stroke="black" stroke-width="1.33333333333" stroke-linecap="round"/><line x1="244.472037154" y1="317.379133298" x2="243.862523728" y2="318.43484152" stroke="black" stroke-width="1.33333333333" stroke-linecap="round"/><line x1="183.520694532" y1="422.949955509" x2="184.130207958" y2="421.894247287" stroke="black" stroke-width="1.33333333333" stroke-linecap="round"/><line x1="183.520694532" y1="422.949955509" x2="184.130207958" y2="424.005663731" stroke="black" stroke-width="1.33333333333" stroke-linecap="round"/><line x1="244.472037154" y1="528.520777719" x2="243.862523728" y2="527.465069497" stroke="black" stroke-width="1.33333333333" stroke-linecap="round"/><line x1="244.472037154" y1="528.520777719" x2="245.691064006" y2="528.520777719" stroke="black" stroke-width="1.33333333333" stroke-linecap="round"/><line x1="366.374722398" y1="528.520777719" x2="365.155695545" y2="528.520777719" stroke="black" stroke-width="1.33333333333" stroke-linecap="round"/><line x1="244.472037154" y1="528.520777719" x2="243.862523728" y2="529.576485941" stroke="black" stroke-width="1.33333333333" stroke-linecap="round"/><line x1="183.520694532" y1="634.09159993" x2="184.130207958" y2="633.035891708" stroke="black" stroke-width="1.33333333333" stroke-linecap="round"/><line x1="183.520694532" y1="634.09159993" x2="184.130207958" y2="635.147308152" stroke="black" stroke-width="1.33333333333" stroke-linecap="round"/><line x1="244.472037154" y1="739.66242214" x2="243.862523728" y2="738.606713918" stroke="black" stroke-width="1.33333333333" stroke-linecap="round"/><line x1="244.472037154" y1="739.66242214" x2="245.691064006" y2="739.66242214" stroke="black" stroke-width="1.33333333333" stroke-linecap="round"/><line x1="366.374722398" y1="739.66242214" x2="365.155695545" y2="739.66242214" stroke="black" stroke-width="1.33333333333" stroke-linecap="round"/><line x1="244.472037154" y1="739.66242214" x2="243.862523728" y2="740.718130362" stroke="black" stroke-width="1.33333333333" stroke-linecap="round"/><line x1="183.520694532" y1="845.233244351" x2="184.130207958" y2="844.177536129" stroke="black" stroke-width="1.33333333333" stroke-linecap="round"/><line x1="183.520694532" y1="845.233244351" x2="184.130207958" y2="846.288952573" stroke="black" stroke-width="1.33333333333" stroke-linecap="round"/><line x1="244.472037154" y1="950.804066561" x2="243.862523728" y2="949.748358339" stroke="black" stroke-width="1.33333333333" stroke-linecap="round"/><line x1="427.326065019" y1="845.233244351" x2="426.716551593" y2="846.288952573" stroke="black" stroke-width="1.33333333333" stroke-linecap="round"/><line x1="366.374722398" y1="950.804066561" x2="366.984235824" y2="949.748358339" stroke="black" stroke-width="1.33333333333" stroke-linecap="round"/><line x1="244.472037154" y1="950.804066561" x2="245.691064006" y2="950.804066561" stroke="black" stroke-width="1.33333333333" stroke-linecap="round"/><line x1="366.374722398" y1="950.804066561" x2="365.155695545" y2="950.804066561" stroke="black" stroke-width="1.33333333333" stroke-linecap="round"/><line x1="427.326065019" y1="0.666666666665" x2="428.545091872" y2="0.666666666665" stroke="black" stroke-width="1.33333333333" stroke-linecap="round"/><line x1="549.228750263" y1="0.666666666665" x2="548.009723411" y2="0.666666666665" stroke="black" stroke-width="1.33333333333" stroke-linecap="round"/><line x1="427.326065019" y1="0.666666666665" x2="426.716551593" y2="1.72237488877" stroke="black" stroke-width="1.33333333333" stroke-linecap="round"/><line x1="366.374722398" y1="106.237488877" x2="366.984235824" y2="105.181780655" stroke="black" stroke-width="1.33333333333" stroke-linecap="round"/><line x1="549.228750263" y1="0.666666666665" x2="549.838263689" y2="1.72237488877" stroke="black" stroke-width="1.33333333333" stroke-linecap="round"/><line x1="610.180092885" y1="106.237488877" x2="609.570579459" y2="105.181780655" stroke="black" stroke-width="1.33333333333" stroke-linecap="round"/><line x1="366.374722398" y1="106.237488877" x2="366.984235824" y2="107.293197099" stroke="black" stroke-width="1.33333333333" stroke-linecap="round"/><line x1="427.326065019" y1="211.808311088" x2="426.716551593" y2="210.752602866" stroke="black" stroke-width="1.33333333333" stroke-linecap="round"/><line x1="427.326065019" y1="211.808311088" x2="428.545091872" y2="211.808311088" stroke="black" stroke-width="1.33333333333" stroke-linecap="round"/><line x1="549.228750263" y1="211.808311088" x2="548.009723411" y2="211.808311088" stroke="black" stroke-width="1.33333333333" stroke-linecap="round"/><line x1="427.326065019" y1="211.808311088" x2="426.716551593" y2="212.86401931" stroke="black" stroke-width="1.33333333333" stroke-linecap="round"/><line x1="366.374722398" y1="317.379133298" x2="366.984235824" y2="316.323425076" stroke="black" stroke-width="1.33333333333" stroke-linecap="round"/><line x1="366.374722398" y1="317.379133298" x2="366.984235824" y2="318.43484152" stroke="black" stroke-width="1.33333333333" stroke-linecap="round"/><line x1="427.326065019" y1="422.949955509" x2="426.716551593" y2="421.894247287" stroke="black" stroke-width="1.33333333333" stroke-linecap="round"/><line x1="427.326065019" y1="422.949955509" x2="428.545091872" y2="422.949955509" stroke="black" stroke-width="1.33333333333" stroke-linecap="round"/><line x1="549.228750263" y1="422.949955509" x2="548.009723411" y2="422.949955509" stroke="black" stroke-width="1.33333333333" stroke-linecap="round"/><line x1="427.326065019" y1="422.949955509" x2="426.716551593" y2="424.005663731" stroke="black" stroke-width="1.33333333333" stroke-linecap="round"/><line x1="366.374722398" y1="528.520777719" x2="366.984235824" y2="527.465069497" stroke="black" stroke-width="1.33333333333" stroke-linecap="round"/><line x1="366.374722398" y1="528.520777719" x2="366.984235824" y2="529.576485941" stroke="black" stroke-width="1.33333333333" stroke-linecap="round"/><line x1="427.326065019" y1="634.09159993" x2="426.716551593" y2="633.035891708" stroke="black" stroke-width="1.33333333333" stroke-linecap="round"/><line x1="427.326065019" y1="634.09159993" x2="428.545091872" y2="634.09159993" stroke="black" stroke-width="1.33333333333" stroke-linecap="round"/><line x1="549.228750263" y1="634.09159993" x2="548.009723411" y2="634.09159993" stroke="black" stroke-width="1.33333333333" stroke-linecap="round"/><line x1="427.326065019" y1="634.09159993" x2="426.716551593" y2="635.147308152" stroke="black" stroke-width="1.33333333333" stroke-linecap="round"/><line x1="366.374722398" y1="739.66242214" x2="366.984235824" y2="738.606713918" stroke="black" stroke-width="1.33333333333" stroke-linecap="round"/><line x1="366.374722398" y1="739.66242214" x2="366.984235824" y2="740.718130362" stroke="black" stroke-width="1.33333333333" stroke-linecap="round"/><line x1="427.326065019" y1="845.233244351" x2="426.716551593" y2="844.177536129" stroke="black" stroke-width="1.33333333333" stroke-linecap="round"/><line x1="427.326065019" y1="845.233244351" x2="428.545091872" y2="845.233244351" stroke="black" stroke-width="1.33333333333" stroke-linecap="round"/><line x1="549.228750263" y1="845.233244351" x2="548.009723411" y2="845.233244351" stroke="black" stroke-width="1.33333333333" stroke-linecap="round"/><line x1="610.180092885" y1="106.237488877" x2="611.399119737" y2="106.237488877" stroke="black" stroke-width="1.33333333333" stroke-linecap="round"/><line x1="732.082778129" y1="106.237488877" x2="730.863751276" y2="106.237488877" stroke="black" stroke-width="1.33333333333" stroke-linecap="round"/><line x1="610.180092885" y1="106.237488877" x2="609.570579459" y2="107.293197099" stroke="black" stroke-width="1.33333333333" stroke-linecap="round"/><line x1="549.228750263" y1="211.808311088" x2="549.838263689" y2="210.752602866" stroke="black" stroke-width="1.33333333333" stroke-linecap="round"/><line x1="549.228750263" y1="211.808311088" x2="549.838263689" y2="212.86401931" stroke="black" stroke-width="1.33333333333" stroke-linecap="round"/><line x1="610.180092885" y1="317.379133298" x2="609.570579459" y2="316.323425076" stroke="black" stroke-width="1.33333333333" stroke-linecap="round"/><line x1="610.180092885" y1="317.379133298" x2="611.399119737" y2="317.379133298" stroke="black" stroke-width="1.33333333333" stroke-linecap="round"/><line x1="732.082778129" y1="317.379133298" x2="730.863751276" y2="317.379133298" stroke="black" stroke-width="1.33333333333" stroke-linecap="round"/><line x1="610.180092885" y1="317.379133298" x2="609.570579459" y2="318.43484152" stroke="black" stroke-width="1.33333333333" stroke-linecap="round"/><line x1="549.228750263" y1="422.949955509" x2="549.838263689" y2="421.894247287" stroke="black" stroke-width="1.33333333333" stroke-linecap="round"/><line x1="549.228750263" y1="422.949955509" x2="549.838263689" y2="424.005663731" stroke="black" stroke-width="1.33333333333" stroke-linecap="round"/><line x1="610.180092885" y1="528.520777719" x2="609.570579459" y2="527.465069497" stroke="black" stroke-width="1.33333333333" stroke-linecap="round"/><line x1="610.180092885" y1="528.520777719" x2="611.399119737" y2="528.520777719" stroke="black" stroke-width="1.33333333333" stroke-linecap="round"/><line x1="732.082778129" y1="528.520777719" x2="730.863751276" y2="528.520777719" stroke="black" stroke-width="1.33333333333" stroke-linecap="round"/><line x1="610.180092885" y1="528.520777719" x2="609.570579459" y2="529.576485941" stroke="black" stroke-width="1.33333333333" stroke-linecap="round"/><line x1="549.228750263" y1="634.09159993" x2="549.838263689" y2="633.035891708" stroke="black" stroke-width="1.33333333333" stroke-linecap="round"/><line x1="549.228750263" y1="634.09159993" x2="549.838263689" y2="635.147308152" stroke="black" stroke-width="1.33333333333" stroke-linecap="round"/><line x1="610.180092885" y1="739.66242214" x2="609.570579459" y2="738.606713918" stroke="black" stroke-width="1.33333333333" stroke-linecap="round"/><line x1="610.180092885" y1="739.66242214" x2="611.399119737" y2="739.66242214" stroke="black" stroke-width="1.33333333333" stroke-linecap="round"/><line x1="732.082778129" y1="739.66242214" x2="730.863751276" y2="739.66242214" stroke="black" stroke-width="1.33333333333" stroke-linecap="round"/><line x1="610.180092885" y1="739.66242214" x2="609.570579459" y2="740.718130362" stroke="black" stroke-width="1.33333333333" stroke-linecap="round"/><line x1="549.228750263" y1="845.233244351" x2="549.838263689" y2="844.177536129" stroke="black" stroke-width="1.33333333333" stroke-linecap="round"/><line x1="549.228750263" y1="845.233244351" x2="549.838263689" y2="846.288952573" stroke="black" stroke-width="1.33333333333" stroke-linecap="round"/><line x1="610.180092885" y1="950.804066561" x2="609.570579459" y2="949.748358339" stroke="black" stroke-width="1.33333333333" stroke-linecap="round"/><line x1="793.03412075" y1="845.233244351" x2="792.424607324" y2="846.288952573" stroke="black" stroke-width="1.33333333333" stroke-linecap="round"/><line x1="732.082778129" y1="950.804066561" x2="732.692291555" y2="949.748358339" stroke="black" stroke-width="1.33333333333" stroke-linecap="round"/><line x1="610.180092885" y1="950.804066561" x2="611.399119737" y2="950.804066561" stroke="black" stroke-width="1.33333333333" stroke-linecap="round"/><line x1="732.082778129" y1="950.804066561" x2="730.863751276" y2="950.804066561" stroke="black" stroke-width="1.33333333333" stroke-linecap="round"/><line x1="732.082778129" y1="106.237488877" x2="732.692291555" y2="107.293197099" stroke="black" stroke-width="1.33333333333" stroke-linecap="round"/><line x1="793.03412075" y1="211.808311088" x2="792.424607324" y2="210.752602866" stroke="black" stroke-width="1.33333333333" stroke-linecap="round"/><line x1="793.03412075" y1="211.808311088" x2="792.424607324" y2="212.86401931" stroke="black" stroke-width="1.33333333333" stroke-linecap="round"/><line x1="732.082778129" y1="317.379133298" x2="732.692291555" y2="316.323425076" stroke="black" stroke-width="1.33333333333" stroke-linecap="round"/><line x1="732.082778129" y1="317.379133298" x2="732.692291555" y2="318.43484152" stroke="black" stroke-width="1.33333333333" stroke-linecap="round"/><line x1="793.03412075" y1="422.949955509" x2="792.424607324" y2="421.894247287" stroke="black" stroke-width="1.33333333333" stroke-linecap="round"/><line x1="793.03412075" y1="422.949955509" x2="792.424607324" y2="424.005663731" stroke="black" stroke-width="1.33333333333" stroke-linecap="round"/><line x1="732.082778129" y1="528.520777719" x2="732.692291555" y2="527.465069497" stroke="black" stroke-width="1.33333333333" stroke-linecap="round"/><line x1="732.082778129" y1="528.520777719" x2="732.692291555" y2="529.576485941" stroke="black" stroke-width="1.33333333333" stroke-linecap="round"/><line x1="793.03412075" y1="634.09159993" x2="792.424607324" y2="633.035891708" stroke="black" stroke-width="1.33333333333" stroke-linecap="round"/><line x1="793.03412075" y1="634.09159993" x2="792.424607324" y2="635.147308152" stroke="black" stroke-width="1.33333333333" stroke-linecap="round"/><line x1="732.082778129" y1="739.66242214" x2="732.692291555" y2="738.606713918" stroke="black" stroke-width="1.33333333333" stroke-linecap="round"/><line x1="732.082778129" y1="739.66242214" x2="732.692291555" y2="740.718130362" stroke="black" stroke-width="1.33333333333" stroke-linecap="round"/><line x1="793.03412075" y1="845.233244351" x2="792.424607324" y2="844.177536129" stroke="black" stroke-width="1.33333333333" stroke-linecap="round"/></svg:g><svg:g inkscape:label="Hex Coordinates" inkscape:groupmode="layer"><text x="122.56935191" y="185.415605535" style="text-align:center;text-anchor:middle;font-size:21.000000pt">11</text><text x="122.56935191" y="396.557249956" style="text-align:center;text-anchor:middle;font-size:21.000000pt">12</text><text x="122.56935191" y="607.698894377" style="text-align:center;text-anchor:middle;font-size:21.000000pt">13</text><text x="122.56935191" y="818.840538798" style="text-align:center;text-anchor:middle;font-size:21.000000pt">14</text><text x="305.423379776" y="290.986427746" style="text-align:center;text-anchor:middle;font-size:21.000000pt">21</text><text x="305.423379776" y="502.128072167" style="text-align:center;text-anchor:middle;font-size:21.000000pt">22</text><text x="305.423379776" y="713.269716588" style="text-align:center;text-anchor:middle;font-size:21.000000pt">23</text><text x="305.423379776" y="924.411361009" style="text-align:center;text-anchor:middle;font-size:21.000000pt">24</text><text x="488.277407641" y="185.415605535" style="text-align:center;text-anchor:middle;font-size:21.000000pt">31</text><text x="488.277407641" y="396.557249956" style="text-align:center;text-anchor:middle;font-size:21.000000pt">32</text><text x="488.277407641" y="607.698894377" style="text-align:center;text-anchor:middle;font-size:21.000000pt">33</text><text x="488.277407641" y="818.840538798" style="text-align:center;text-anchor:middle;font-size:21.000000pt">34</text><text x="671.131435507" y="290.986427746" style="text-align:center;text-anchor:middle;font-size:21.000000pt">41</text><text x="671.131435507" y="502.128072167" style="text-align:center;text-anchor:middle;font-size:21.000000pt">42</text><text x="671.131435507" y="713.269716588" style="text-align:center;text-anchor:middle;font-size:21.000000pt">43</text><text x="671.131435507" y="924.411361009" style="text-align:center;text-anchor:middle;font-size:21.000000pt">44</text></svg:g><svg:g inkscape:label="Hex Centerdots" inkscape:groupmode="layer"><circle cx="122.56935191" cy="106.237488877" r="1.55875" fill="black" id="hexcenter_1_1"/><circle cx="122.56935191" cy="317.379133298" r="1.55875" fill="black" id="hexcenter_1_2"/><circle cx="122.56935191" cy="528.520777719" r="1.55875" fill="black" id="hexcenter_1_3"/><circle cx="122.56935191" cy="739.66242214" r="1.55875" fill="black" id="hexcenter_1_4"/><circle cx="305.423379776" cy="211.808311088" r="1.55875" fill="black" id="hexcenter_2_1"/><circle cx="305.423379776" cy="422.949955509" r="1.55875" fill="black" id="hexcenter_2_2"/><circle cx="305.423379776" cy="634.09159993" r="1.55875" fill="black" id="hexcenter_2_3"/><circle cx="305.423379776" cy="845.233244351" r="1.55875" fill="black" id="hexcenter_2_4"/><circle cx="488.277407641" cy="106.237488877" r="1.55875" fill="black" id="hexcenter_3_1"/><circle cx="488.277407641" cy="317.379133298" r="1.55875" fill="black" id="hexcenter_3_2"/><circle cx="488.277407641" cy="528.520777719" r="1.55875" fill="black" id="hexcenter_3_3"/><circle cx="488.277407641" cy="739.66242214" r="1.55875" fill="black" id="hexcenter_3_4"/><circle cx="671.131435507" cy="211.808311088" r="1.55875" fill="black" id="hexcenter_4_1"/><circle cx="671.131435507" cy="422.949955509" r="1.55875" fill="black" id="hexcenter_4_2"/><circle cx="671.131435507" cy="634.09159993" r="1.55875" fill="black" id="hexcenter_4_3"/><circle cx="671.131435507" cy="845.233244351" r="1.55875" fill="black" id="hexcenter_4_4"/></svg:g></svg>