<!-- Created with Inkscape (http://www.inkscape.org/) --><svg xmlns:dc="http://purl.org/dc/elements/1.1/" xmlns:cc="http://creativecommons.org/ns#" xmlns:rdf="http://www.w3.org/1999/02/22-rdf-syntax-ns#" xmlns:svg="http://www.w3.org/2000/svg" xmlns="http://www.w3.org/2000/svg" xmlns:sodipodi="http://sodipodi.sourceforge.net/DTD/sodipodi-0.dtd" xmlns:inkscape="http://www.inkscape.org/namespaces/inkscape" sodipodi:docname="test.svg" inkscape:version="0.92.2 (5c3e80d, 2017-08-06)" version="1.1" id="svg8084" viewBox="0.0 0.0 793.700787403 1122.51968501" height="1122.51968506" width="793.700787417">
  <sodipodi:namedview inkscape:window-maximized="1" inkscape:window-y="0" inkscape:window-x="0" inkscape:window-height="719" inkscape:window-width="1366" showgrid="false" inkscape:current-layer="svg8084" inkscape:document-units="px" inkscape:cy="714.45145" inkscape:cx="-113.30561" inkscape:zoom="0.7" inkscape:pageshadow="2" inkscape:pageopacity="0.0" borderopacity="1.0" bordercolor="#666666" pagecolor="#ffffff" id="base"/>
  <defs id="defs8086"/>
  <metadata id="metadata8089">
    <rdf:RDF>
      <cc:Work rdf:about="">
        <dc:format>image/svg+xml</dc:format>
        <dc:type rdf:resource="http://purl.org/dc/dcmitype/StillImage"/>
        <dc:title/>
      </cc:Work>
    </rdf:RDF>
  </metadata>
  <g transform="matrix(1.066667,0.000000,0.000000,1.066667,0.000000,0.000000)" id="layer1" inkscape:groupmode="layer" inkscape:label="Layer 1"/>
<svg:g inkscape:label="Hex Fill" inkscape:groupmode="layer"><polygon points="184.179285,1.889764 244.942459,107.134668 184.179285,212.379572 62.652938,212.379572 1.889764,107.134668 62.652938,1.889764" style="stroke:none;fill:#ffffff;fill-opacity:1;stroke-width:3.779527559055118;stroke-linecap:round" id="hexfill_1_1"/><polygon points="184.179285,212.379572 244.942459,317.624477 184.179285,422.869381 62.652938,422.869381 1.889764,317.624477 62.652938,212.379572" style="stroke:none;fill:#ffffff;fill-opacity:1;stroke-width:3.779527559055118;stroke-linecap:round" id="hexfill_1_2"/><polygon points="184.179285,422.869381 244.942459,528.114285 184.179285,633.359190 62.652938,633.359190 1.889764,528.114285 62.652938,422.869381" style="stroke:none;fill:#ffffff;fill-opacity:1;stroke-width:3.779527559055118;stroke-linecap:round" id="hexfill_1_3"/><polygon points="184.179285,633.359190 244.942459,738.604094 184.179285,843.848998 62.652938,843.848998 1.889764,738.604094 62.652938,633.359190" style="stroke:none;fill:#ffffff;fill-opacity:1;stroke-width:3.779527559055118;stroke-linecap:round" id="hexfill_1_4"/><polygon points="366.468807,107.134668 427.231981,212.379572 366.468807,317.624477 244.942459,317.624477 184.179285,212.379572 244.942459,107.134668" style="stroke:none;fill:#ffffff;fill-opacity:1;stroke-width:3.779527559055118;stroke-linecap:round" id="hexfill_2_1"/><polygon points="366.468807,317.624477 427.231981,422.869381 366.468807,528.114285 244.942459,528.114285 184.179285,422.869381 244.942459,317.624477" style="stroke:none;fill:#ffffff;fill-opacity:1;stroke-width:3.779527559055118;stroke-linecap:round" id="hexfill_2_2"/><polygon points="366.468807,528.114285 427.231981,633.359190 366.468807,738.604094 244.942459,738.604094 184.179285,633.359190 244.942459,528.114285" style="stroke:none;fill:#ffffff;fill-opacity:1;stroke-width:3.779527559055118;stroke-linecap:round" id="hexfill_2_3"/><polygon points="366.468807,738.604094 427.231981,843.848998 366.468807,949.093903 244.942459,949.093903 184.179285,843.848998 244.942459,738.604094" style="stroke:none;fill:#ffffff;fill-opacity:1;stroke-width:3.779527559055118;stroke-linecap:round" id="hexfill_2_4"/><polygon points="548.758328,1.889764 609.521502,107.134668 548.758328,212.379572 427.231981,212.379572 366.468807,107.134668 427.231981,1.889764" style="stroke:none;fill:#ffffff;fill-opacity:1;stroke-width:3.779527559055118;stroke-linecap:round" id="hexfill_3_1"/><polygon points="548.758328,212.379572 609.521502,317.624477 548.758328,422.869381 427.231981,422.869381 366.468807,317.624477 427.231981,212.379572" style="stroke:none;fill:#ffffff;fill-opacity:1;stroke-width:3.779527559055118;stroke-linecap:round" id="hexfill_3_2"/><polygon points="548.758328,422.869381 609.521502,528.114285 548.758328,633.359190 427.231981,633.359190 366.468807,528.114285 427.231981,422.869381" style="stroke:none;fill:#ffffff;fill-opacity:1;stroke-width:3.779527559055118;stroke-linecap:round" id="hexfill_3_3"/><polygon points="548.758328,633.359190 609.521502,738.604094 548.758328,843.848998 427.231981,843.848998 366.468807,738.604094 427.231981,633.359190" style="stroke:none;fill:#ffffff;fill-opacity:1;stroke-width:3.779527559055118;stroke-linecap:round" id="hexfill_3_4"/><polygon points="731.047850,107.134668 791.811024,212.379572 731.047850,317.624477 609.521502,317.624477 548.758328,212.379572 609.521502,107.134668" style="stroke:none;fill:#ffffff;fill-opacity:1;stroke-width:3.779527559055118;stroke-linecap:round" id="hexfill_4_1"/><polygon points="731.047850,317.624477 791.811024,422.869381 731.047850,528.114285 609.521502,528.114285 548.758328,422.869381 609.521502,317.624477" style="stroke:none;fill:#ffffff;fill-opacity:1;stroke-width:3.779527559055118;stroke-linecap:round" id="hexfill_4_2"/><polygon points="731.047850,528.114285 791.811024,633.359190 731.047850,738.604094 609.521502,738.604094 548.758328,633.359190 609.521502,528.114285" style="stroke:none;fill:#ffffff;fill-opacity:1;stroke-width:3.779527559055118;stroke-linecap:round" id="hexfill_4_3"/><polygon points="731.047850,738.604094 791.811024,843.848998 731.047850,949.093903 609.521502,949.093903 548.758328,843.848998 609.521502,738.604094" style="stroke:none;fill:#ffffff;fill-opacity:1;stroke-width:3.779527559055118;stroke-linecap:round" id="hexfill_4_4"/></svg:g><svg:g inkscape:label="Hex Circles" inkscape:groupmode="layer"><circle cx="123.4161114499806" cy="107.13466809127974" r="105.24490431175218" fill="black" id="hexcircle_1_1"/><circle cx="123.4161114499806" cy="317.6244767147841" r="105.24490431175218" fill="black" id="hexcircle_1_2"/><circle cx="123.4161114499806" cy="528.1142853382885" r="105.24490431175218" fill="black" id="hexcircle_1_3"/><circle cx="123.4161114499806" cy="738.6040939617928" r="105.24490431175218" fill="black" id="hexcircle_1_4"/><circle cx="305.70563295566023" cy="212.37957240303191" r="105.24490431175218" fill="black" id="hexcircle_2_1"/><circle cx="305.70563295566023" cy="422.8693810265363" r="105.24490431175218" fill="black" id="hexcircle_2_2"/><circle cx="305.70563295566023" cy="633.3591896500407" r="105.24490431175218" fill="black" id="hexcircle_2_3"/><circle cx="305.70563295566023" cy="843.848998273545" r="105.24490431175218" fill="black" id="hexcircle_2_4"/><circle cx="487.9951544613398" cy="107.13466809127974" r="105.24490431175218" fill="black" id="hexcircle_3_1"/><circle cx="487.9951544613398" cy="317.6244767147841" r="105.24490431175218" fill="black" id="hexcircle_3_2"/><circle cx="487.9951544613398" cy="528.1142853382885" r="105.24490431175218" fill="black" id="hexcircle_3_3"/><circle cx="487.9951544613398" cy="738.6040939617928" r="105.24490431175218" fill="black" id="hexcircle_3_4"/><circle cx="670.2846759670193" cy="212.37957240303191" r="105.24490431175218" fill="black" id="hexcircle_4_1"/><circle cx="670.2846759670193" cy="422.8693810265363" r="105.24490431175218" fill="black" id="hexcircle_4_2"/><circle cx="670.2846759670193" cy="633.3591896500407" r="105.24490431175218" fill="black" id="hexcircle_4_3"/><circle cx="670.2846759670193" cy="843.848998273545" r="105.24490431175218" fill="black" id="hexcircle_4_4"/></svg:g><svg:g inkscape:label="Hex Grid" inkscape:groupmode="layer" style="display:none"><line x1="62.65293761475408" y1="1.889763779527559" x2="184.17928528520713" y2="1.889763779527559" style="stroke:#000000; stroke-width:3.779527559055118;stroke-linecap:round"/><line x1="62.65293761475408" y1="1.889763779527559" x2="1.889763779527559" y2="107.13466809127974" style="stroke:#000000; stroke-width:3.779527559055118;stroke-linecap:round"/><line x1="184.17928528520713" y1="1.889763779527559" x2="244.94245912043365" y2="107.13466809127974" style="stroke:#000000; stroke-width:3.779527559055118;stroke-linecap:round"/><line x1="1.889763779527559" y1="107.13466809127974" x2="62.65293761475408" y2="212.37957240303191" style="stroke:#000000; stroke-width:3.779527559055118;stroke-linecap:round"/><line x1="62.65293761475408" y1="212.37957240303191" x2="184.17928528520713" y2="212.37957240303191" style="stroke:#000000; stroke-width:3.779527559055118;stroke-linecap:round"/><line x1="62.65293761475408" y1="212.37957240303191" x2="1.889763779527559" y2="317.6244767147841" style="stroke:#000000; stroke-width:3.779527559055118;stroke-linecap:round"/><line x1="1.889763779527559" y1="317.6244767147841" x2="62.65293761475408" y2="422.8693810265363" style="stroke:#000000; stroke-width:3.779527559055118;stroke-linecap:round"/><line x1="62.65293761475408" y1="422.8693810265363" x2="184.17928528520713" y2="422.8693810265363" style="stroke:#000000; stroke-width:3.779527559055118;stroke-linecap:round"/><line x1="62.65293761475408" y1="422.8693810265363" x2="1.889763779527559" y2="528.1142853382885" style="stroke:#000000; stroke-width:3.779527559055118;stroke-linecap:round"/><line x1="1.889763779527559" y1="528.1142853382885" x2="62.65293761475408" y2="633.3591896500407" style="stroke:#000000; stroke-width:3.779527559055118;stroke-linecap:round"/><line x1="62.65293761475408" y1="633.3591896500407" x2="184.17928528520713" y2="633.3591896500407" style="stroke:#000000; stroke-width:3.779527559055118;stroke-linecap:round"/><line x1="62.65293761475408" y1="633.3591896500407" x2="1.889763779527559" y2="738.6040939617928" style="stroke:#000000; stroke-width:3.779527559055118;stroke-linecap:round"/><line x1="1.889763779527559" y1="738.6040939617928" x2="62.65293761475408" y2="843.848998273545" style="stroke:#000000; stroke-width:3.779527559055118;stroke-linecap:round"/><line x1="62.65293761475408" y1="843.848998273545" x2="184.17928528520713" y2="843.848998273545" style="stroke:#000000; stroke-width:3.779527559055118;stroke-linecap:round"/><line x1="244.94245912043368" y1="107.13466809127974" x2="366.4688067908868" y2="107.13466809127974" style="stroke:#000000; stroke-width:3.779527559055118;stroke-linecap:round"/><line x1="244.94245912043368" y1="107.13466809127974" x2="184.17928528520716" y2="212.37957240303191" style="stroke:#000000; stroke-width:3.779527559055118;stroke-linecap:round"/><line x1="184.17928528520716" y1="212.37957240303191" x2="244.94245912043368" y2="317.6244767147841" style="stroke:#000000; stroke-width:3.779527559055118;stroke-linecap:round"/><line x1="244.94245912043368" y1="317.6244767147841" x2="366.4688067908868" y2="317.6244767147841" style="stroke:#000000; stroke-width:3.779527559055118;stroke-linecap:round"/><line x1="244.94245912043368" y1="317.6244767147841" x2="184.17928528520716" y2="422.8693810265363" style="stroke:#000000; stroke-width:3.779527559055118;stroke-linecap:round"/><line x1="184.17928528520716" y1="422.8693810265363" x2="244.94245912043368" y2="528.1142853382885" style="stroke:#000000; stroke-width:3.779527559055118;stroke-linecap:round"/><line x1="244.94245912043368" y1="528.1142853382885" x2="366.4688067908868" y2="528.1142853382885" style="stroke:#000000; stroke-width:3.779527559055118;stroke-linecap:round"/><line x1="244.94245912043368" y1="528.1142853382885" x2="184.17928528520716" y2="633.3591896500407" style="stroke:#000000; stroke-width:3.779527559055118;stroke-linecap:round"/><line x1="184.17928528520716" y1="633.3591896500407" x2="244.94245912043368" y2="738.6040939617928" style="stroke:#000000; stroke-width:3.779527559055118;stroke-linecap:round"/><line x1="244.94245912043368" y1="738.6040939617928" x2="366.4688067908868" y2="738.6040939617928" style="stroke:#000000; stroke-width:3.779527559055118;stroke-linecap:round"/><line x1="244.94245912043368" y1="738.6040939617928" x2="184.17928528520716" y2="843.848998273545" style="stroke:#000000; stroke-width:3.779527559055118;stroke-linecap:round"/><line x1="184.17928528520716" y1="843.848998273545" x2="244.94245912043368" y2="949.0939025852972" style="stroke:#000000; stroke-width:3.779527559055118;stroke-linecap:round"/><line x1="427.2319806261133" y1="843.848998273545" x2="366.4688067908868" y2="949.0939025852972" style="stroke:#000000; stroke-width:3.779527559055118;stroke-linecap:round"/><line x1="244.94245912043368" y1="949.0939025852972" x2="366.4688067908868" y2="949.0939025852972" style="stroke:#000000; stroke-width:3.779527559055118;stroke-linecap:round"/><line x1="427.2319806261132" y1="1.889763779527559" x2="548.7583282965663" y2="1.889763779527559" style="stroke:#000000; stroke-width:3.779527559055118;stroke-linecap:round"/><line x1="427.2319806261132" y1="1.889763779527559" x2="366.46880679088673" y2="107.13466809127974" style="stroke:#000000; stroke-width:3.779527559055118;stroke-linecap:round"/><line x1="548.7583282965663" y1="1.889763779527559" x2="609.5215021317929" y2="107.13466809127974" style="stroke:#000000; stroke-width:3.779527559055118;stroke-linecap:round"/><line x1="366.46880679088673" y1="107.13466809127974" x2="427.2319806261132" y2="212.37957240303191" style="stroke:#000000; stroke-width:3.779527559055118;stroke-linecap:round"/><line x1="427.2319806261132" y1="212.37957240303191" x2="548.7583282965663" y2="212.37957240303191" style="stroke:#000000; stroke-width:3.779527559055118;stroke-linecap:round"/><line x1="427.2319806261132" y1="212.37957240303191" x2="366.46880679088673" y2="317.6244767147841" style="stroke:#000000; stroke-width:3.779527559055118;stroke-linecap:round"/><line x1="366.46880679088673" y1="317.6244767147841" x2="427.2319806261132" y2="422.8693810265363" style="stroke:#000000; stroke-width:3.779527559055118;stroke-linecap:round"/><line x1="427.2319806261132" y1="422.8693810265363" x2="548.7583282965663" y2="422.8693810265363" style="stroke:#000000; stroke-width:3.779527559055118;stroke-linecap:round"/><line x1="427.2319806261132" y1="422.8693810265363" x2="366.46880679088673" y2="528.1142853382885" style="stroke:#000000; stroke-width:3.779527559055118;stroke-linecap:round"/><line x1="366.46880679088673" y1="528.1142853382885" x2="427.2319806261132" y2="633.3591896500407" style="stroke:#000000; stroke-width:3.779527559055118;stroke-linecap:round"/><line x1="427.2319806261132" y1="633.3591896500407" x2="548.7583282965663" y2="633.3591896500407" style="stroke:#000000; stroke-width:3.779527559055118;stroke-linecap:round"/><line x1="427.2319806261132" y1="633.3591896500407" x2="366.46880679088673" y2="738.6040939617928" style="stroke:#000000; stroke-width:3.779527559055118;stroke-linecap:round"/><line x1="366.46880679088673" y1="738.6040939617928" x2="427.2319806261132" y2="843.848998273545" style="stroke:#000000; stroke-width:3.779527559055118;stroke-linecap:round"/><line x1="427.2319806261132" y1="843.848998273545" x2="548.7583282965663" y2="843.848998273545" style="stroke:#000000; stroke-width:3.779527559055118;stroke-linecap:round"/><line x1="609.5215021317928" y1="107.13466809127974" x2="731.0478498022459" y2="107.13466809127974" style="stroke:#000000; stroke-width:3.779527559055118;stroke-linecap:round"/><line x1="609.5215021317928" y1="107.13466809127974" x2="548.7583282965663" y2="212.37957240303191" style="stroke:#000000; stroke-width:3.779527559055118;stroke-linecap:round"/><line x1="548.7583282965663" y1="212.37957240303191" x2="609.5215021317928" y2="317.6244767147841" style="stroke:#000000; stroke-width:3.779527559055118;stroke-linecap:round"/><line x1="609.5215021317928" y1="317.6244767147841" x2="731.0478498022459" y2="317.6244767147841" style="stroke:#000000; stroke-width:3.779527559055118;stroke-linecap:round"/><line x1="609.5215021317928" y1="317.6244767147841" x2="548.7583282965663" y2="422.8693810265363" style="stroke:#000000; stroke-width:3.779527559055118;stroke-linecap:round"/><line x1="548.7583282965663" y1="422.8693810265363" x2="609.5215021317928" y2="528.1142853382885" style="stroke:#000000; stroke-width:3.779527559055118;stroke-linecap:round"/><line x1="609.5215021317928" y1="528.1142853382885" x2="731.0478498022459" y2="528.1142853382885" style="stroke:#000000; stroke-width:3.779527559055118;stroke-linecap:round"/><line x1="609.5215021317928" y1="528.1142853382885" x2="548.7583282965663" y2="633.3591896500407" style="stroke:#000000; stroke-width:3.779527559055118;stroke-linecap:round"/><line x1="548.7583282965663" y1="633.3591896500407" x2="609.5215021317928" y2="738.6040939617928" style="stroke:#000000; stroke-width:3.779527559055118;stroke-linecap:round"/><line x1="609.5215021317928" y1="738.6040939617928" x2="731.0478498022459" y2="738.6040939617928" style="stroke:#000000; stroke-width:3.779527559055118;stroke-linecap:round"/><line x1="609.5215021317928" y1="738.6040939617928" x2="548.7583282965663" y2="843.848998273545" style="stroke:#000000; stroke-width:3.779527559055118;stroke-linecap:round"/><line x1="548.7583282965663" y1="843.848998273545" x2="609.5215021317928" y2="949.0939025852972" style="stroke:#000000; stroke-width:3.779527559055118;stroke-linecap:round"/><line x1="791.8110236374723" y1="843.848998273545" x2="731.0478498022459" y2="949.0939025852972" style="stroke:#000000; stroke-width:3.779527559055118;stroke-linecap:round"/><line x1="609.5215021317928" y1="949.0939025852972" x2="731.0478498022459" y2="949.0939025852972" style="stroke:#000000; stroke-width:3.779527559055118;stroke-linecap:round"/><line x1="731.0478498022458" y1="107.13466809127974" x2="791.8110236374723" y2="212.37957240303191" style="stroke:#000000; stroke-width:3.779527559055118;stroke-linecap:round"/><line x1="791.8110236374723" y1="212.37957240303191" x2="731.0478498022458" y2="317.6244767147841" style="stroke:#000000; stroke-width:3.779527559055118;stroke-linecap:round"/><line x1="731.0478498022458" y1="317.6244767147841" x2="791.8110236374723" y2="422.8693810265363" style="stroke:#000000; stroke-width:3.779527559055118;stroke-linecap:round"/><line x1="791.8110236374723" y1="422.8693810265363" x2="731.0478498022458" y2="528.1142853382885" style="stroke:#000000; stroke-width:3.779527559055118;stroke-linecap:round"/><line x1="731.0478498022458" y1="528.1142853382885" x2="791.8110236374723" y2="633.3591896500407" style="stroke:#000000; stroke-width:3.779527559055118;stroke-linecap:round"/><line x1="791.8110236374723" y1="633.3591896500407" x2="731.0478498022458" y2="738.6040939617928" style="stroke:#000000; stroke-width:3.779527559055118;stroke-linecap:round"/><line x1="731.0478498022458" y1="738.6040939617928" x2="791.8110236374723" y2="843.848998273545" style="stroke:#000000; stroke-width:3.779527559055118;stroke-linecap:round"/></svg:g><svg:g inkscape:label="Hex Vertices" inkscape:groupmode="layer"><line x1="62.65293761475408" y1="1.889763779527559" x2="63.86820109145861" y2="1.889763779527559" style="stroke:#000000; stroke-width:3.779527559055118;stroke-linecap:round"/><line x1="184.17928528520713" y1="1.889763779527559" x2="182.9640218085026" y2="1.889763779527559" style="stroke:#000000; stroke-width:3.779527559055118;stroke-linecap:round"/><line x1="62.65293761475408" y1="1.889763779527559" x2="62.04530587640181" y2="2.9422128226450805" style="stroke:#000000; stroke-width:3.779527559055118;stroke-linecap:round"/><line x1="1.889763779527559" y1="107.13466809127974" x2="2.4973955178798244" y2="106.08221904816222" style="stroke:#000000; stroke-width:3.779527559055118;stroke-linecap:round"/><line x1="184.17928528520713" y1="1.889763779527559" x2="184.7869170235594" y2="2.9422128226450805" style="stroke:#000000; stroke-width:3.779527559055118;stroke-linecap:round"/><line x1="244.94245912043365" y1="107.13466809127974" x2="244.3348273820814" y2="106.08221904816222" style="stroke:#000000; stroke-width:3.779527559055118;stroke-linecap:round"/><line x1="1.889763779527559" y1="107.13466809127974" x2="2.4973955178798244" y2="108.18711713439725" style="stroke:#000000; stroke-width:3.779527559055118;stroke-linecap:round"/><line x1="62.65293761475408" y1="212.37957240303191" x2="62.04530587640181" y2="211.3271233599144" style="stroke:#000000; stroke-width:3.779527559055118;stroke-linecap:round"/><line x1="62.65293761475408" y1="212.37957240303191" x2="63.86820109145861" y2="212.37957240303191" style="stroke:#000000; stroke-width:3.779527559055118;stroke-linecap:round"/><line x1="184.17928528520713" y1="212.37957240303191" x2="182.9640218085026" y2="212.37957240303191" style="stroke:#000000; stroke-width:3.779527559055118;stroke-linecap:round"/><line x1="62.65293761475408" y1="212.37957240303191" x2="62.04530587640181" y2="213.43202144614943" style="stroke:#000000; stroke-width:3.779527559055118;stroke-linecap:round"/><line x1="1.889763779527559" y1="317.6244767147841" x2="2.4973955178798244" y2="316.5720276716666" style="stroke:#000000; stroke-width:3.779527559055118;stroke-linecap:round"/><line x1="1.889763779527559" y1="317.6244767147841" x2="2.4973955178798244" y2="318.67692575790164" style="stroke:#000000; stroke-width:3.779527559055118;stroke-linecap:round"/><line x1="62.65293761475408" y1="422.8693810265363" x2="62.04530587640181" y2="421.8169319834188" style="stroke:#000000; stroke-width:3.779527559055118;stroke-linecap:round"/><line x1="62.65293761475408" y1="422.8693810265363" x2="63.86820109145861" y2="422.8693810265363" style="stroke:#000000; stroke-width:3.779527559055118;stroke-linecap:round"/><line x1="184.17928528520713" y1="422.8693810265363" x2="182.9640218085026" y2="422.8693810265363" style="stroke:#000000; stroke-width:3.779527559055118;stroke-linecap:round"/><line x1="62.65293761475408" y1="422.8693810265363" x2="62.04530587640181" y2="423.9218300696538" style="stroke:#000000; stroke-width:3.779527559055118;stroke-linecap:round"/><line x1="1.889763779527559" y1="528.1142853382885" x2="2.4973955178798244" y2="527.0618362951709" style="stroke:#000000; stroke-width:3.779527559055118;stroke-linecap:round"/><line x1="1.889763779527559" y1="528.1142853382885" x2="2.4973955178798244" y2="529.1667343814061" style="stroke:#000000; stroke-width:3.779527559055118;stroke-linecap:round"/><line x1="62.65293761475408" y1="633.3591896500407" x2="62.04530587640181" y2="632.3067406069231" style="stroke:#000000; stroke-width:3.779527559055118;stroke-linecap:round"/><line x1="62.65293761475408" y1="633.3591896500407" x2="63.86820109145861" y2="633.3591896500407" style="stroke:#000000; stroke-width:3.779527559055118;stroke-linecap:round"/><line x1="184.17928528520713" y1="633.3591896500407" x2="182.9640218085026" y2="633.3591896500407" style="stroke:#000000; stroke-width:3.779527559055118;stroke-linecap:round"/><line x1="62.65293761475408" y1="633.3591896500407" x2="62.04530587640181" y2="634.4116386931582" style="stroke:#000000; stroke-width:3.779527559055118;stroke-linecap:round"/><line x1="1.889763779527559" y1="738.6040939617928" x2="2.4973955178798244" y2="737.5516449186753" style="stroke:#000000; stroke-width:3.779527559055118;stroke-linecap:round"/><line x1="1.889763779527559" y1="738.6040939617928" x2="2.4973955178798244" y2="739.6565430049104" style="stroke:#000000; stroke-width:3.779527559055118;stroke-linecap:round"/><line x1="62.65293761475408" y1="843.848998273545" x2="62.04530587640181" y2="842.7965492304274" style="stroke:#000000; stroke-width:3.779527559055118;stroke-linecap:round"/><line x1="62.65293761475408" y1="843.848998273545" x2="63.86820109145861" y2="843.848998273545" style="stroke:#000000; stroke-width:3.779527559055118;stroke-linecap:round"/><line x1="184.17928528520713" y1="843.848998273545" x2="182.9640218085026" y2="843.848998273545" style="stroke:#000000; stroke-width:3.779527559055118;stroke-linecap:round"/><line x1="244.94245912043368" y1="107.13466809127974" x2="246.15772259713822" y2="107.13466809127974" style="stroke:#000000; stroke-width:3.779527559055118;stroke-linecap:round"/><line x1="366.4688067908868" y1="107.13466809127974" x2="365.25354331418225" y2="107.13466809127974" style="stroke:#000000; stroke-width:3.779527559055118;stroke-linecap:round"/><line x1="244.94245912043368" y1="107.13466809127974" x2="244.33482738208141" y2="108.18711713439725" style="stroke:#000000; stroke-width:3.779527559055118;stroke-linecap:round"/><line x1="184.17928528520716" y1="212.37957240303191" x2="184.78691702355943" y2="211.3271233599144" style="stroke:#000000; stroke-width:3.779527559055118;stroke-linecap:round"/><line x1="184.17928528520716" y1="212.37957240303191" x2="184.78691702355943" y2="213.43202144614943" style="stroke:#000000; stroke-width:3.779527559055118;stroke-linecap:round"/><line x1="244.94245912043368" y1="317.6244767147841" x2="244.33482738208141" y2="316.5720276716666" style="stroke:#000000; stroke-width:3.779527559055118;stroke-linecap:round"/><line x1="244.94245912043368" y1="317.6244767147841" x2="246.15772259713822" y2="317.6244767147841" style="stroke:#000000; stroke-width:3.779527559055118;stroke-linecap:round"/><line x1="366.4688067908868" y1="317.6244767147841" x2="365.25354331418225" y2="317.6244767147841" style="stroke:#000000; stroke-width:3.779527559055118;stroke-linecap:round"/><line x1="244.94245912043368" y1="317.6244767147841" x2="244.33482738208141" y2="318.67692575790164" style="stroke:#000000; stroke-width:3.779527559055118;stroke-linecap:round"/><line x1="184.17928528520716" y1="422.8693810265363" x2="184.78691702355943" y2="421.8169319834188" style="stroke:#000000; stroke-width:3.779527559055118;stroke-linecap:round"/><line x1="184.17928528520716" y1="422.8693810265363" x2="184.78691702355943" y2="423.9218300696538" style="stroke:#000000; stroke-width:3.779527559055118;stroke-linecap:round"/><line x1="244.94245912043368" y1="528.1142853382885" x2="244.33482738208141" y2="527.0618362951709" style="stroke:#000000; stroke-width:3.779527559055118;stroke-linecap:round"/><line x1="244.94245912043368" y1="528.1142853382885" x2="246.15772259713822" y2="528.1142853382885" style="stroke:#000000; stroke-width:3.779527559055118;stroke-linecap:round"/><line x1="366.4688067908868" y1="528.1142853382885" x2="365.25354331418225" y2="528.1142853382885" style="stroke:#000000; stroke-width:3.779527559055118;stroke-linecap:round"/><line x1="244.94245912043368" y1="528.1142853382885" x2="244.33482738208141" y2="529.1667343814061" style="stroke:#000000; stroke-width:3.779527559055118;stroke-linecap:round"/><line x1="184.17928528520716" y1="633.3591896500407" x2="184.78691702355943" y2="632.3067406069231" style="stroke:#000000; stroke-width:3.779527559055118;stroke-linecap:round"/><line x1="184.17928528520716" y1="633.3591896500407" x2="184.78691702355943" y2="634.4116386931582" style="stroke:#000000; stroke-width:3.779527559055118;stroke-linecap:round"/><line x1="244.94245912043368" y1="738.6040939617928" x2="244.33482738208141" y2="737.5516449186753" style="stroke:#000000; stroke-width:3.779527559055118;stroke-linecap:round"/><line x1="244.94245912043368" y1="738.6040939617928" x2="246.15772259713822" y2="738.6040939617928" style="stroke:#000000; stroke-width:3.779527559055118;stroke-linecap:round"/><line x1="366.4688067908868" y1="738.6040939617928" x2="365.25354331418225" y2="738.6040939617928" style="stroke:#000000; stroke-width:3.779527559055118;stroke-linecap:round"/><line x1="244.94245912043368" y1="738.6040939617928" x2="244.33482738208141" y2="739.6565430049104" style="stroke:#000000; stroke-width:3.779527559055118;stroke-linecap:round"/><line x1="184.17928528520716" y1="843.848998273545" x2="184.78691702355943" y2="842.7965492304274" style="stroke:#000000; stroke-width:3.779527559055118;stroke-linecap:round"/><line x1="184.17928528520716" y1="843.848998273545" x2="184.78691702355943" y2="844.9014473166626" style="stroke:#000000; stroke-width:3.779527559055118;stroke-linecap:round"/><line x1="244.94245912043368" y1="949.0939025852972" x2="244.33482738208141" y2="948.0414535421796" style="stroke:#000000; stroke-width:3.779527559055118;stroke-linecap:round"/><line x1="427.2319806261133" y1="843.848998273545" x2="426.624348887761" y2="844.9014473166626" style="stroke:#000000; stroke-width:3.779527559055118;stroke-linecap:round"/><line x1="366.4688067908868" y1="949.0939025852972" x2="367.07643852923906" y2="948.0414535421796" style="stroke:#000000; stroke-width:3.779527559055118;stroke-linecap:round"/><line x1="244.94245912043368" y1="949.0939025852972" x2="246.15772259713822" y2="949.0939025852972" style="stroke:#000000; stroke-width:3.779527559055118;stroke-linecap:round"/><line x1="366.4688067908868" y1="949.0939025852972" x2="365.25354331418225" y2="949.0939025852972" style="stroke:#000000; stroke-width:3.779527559055118;stroke-linecap:round"/><line x1="427.2319806261132" y1="1.889763779527559" x2="428.44724410281776" y2="1.889763779527559" style="stroke:#000000; stroke-width:3.779527559055118;stroke-linecap:round"/><line x1="548.7583282965663" y1="1.889763779527559" x2="547.5430648198618" y2="1.889763779527559" style="stroke:#000000; stroke-width:3.779527559055118;stroke-linecap:round"/><line x1="427.2319806261132" y1="1.889763779527559" x2="426.62434888776096" y2="2.9422128226450805" style="stroke:#000000; stroke-width:3.779527559055118;stroke-linecap:round"/><line x1="366.46880679088673" y1="107.13466809127974" x2="367.076438529239" y2="106.08221904816222" style="stroke:#000000; stroke-width:3.779527559055118;stroke-linecap:round"/><line x1="548.7583282965663" y1="1.889763779527559" x2="549.3659600349185" y2="2.9422128226450805" style="stroke:#000000; stroke-width:3.779527559055118;stroke-linecap:round"/><line x1="609.5215021317929" y1="107.13466809127974" x2="608.9138703934407" y2="106.08221904816222" style="stroke:#000000; stroke-width:3.779527559055118;stroke-linecap:round"/><line x1="366.46880679088673" y1="107.13466809127974" x2="367.076438529239" y2="108.18711713439725" style="stroke:#000000; stroke-width:3.779527559055118;stroke-linecap:round"/><line x1="427.2319806261132" y1="212.37957240303191" x2="426.62434888776096" y2="211.3271233599144" style="stroke:#000000; stroke-width:3.779527559055118;stroke-linecap:round"/><line x1="427.2319806261132" y1="212.37957240303191" x2="428.44724410281776" y2="212.37957240303191" style="stroke:#000000; stroke-width:3.779527559055118;stroke-linecap:round"/><line x1="548.7583282965663" y1="212.37957240303191" x2="547.5430648198618" y2="212.37957240303191" style="stroke:#000000; stroke-width:3.779527559055118;stroke-linecap:round"/><line x1="427.2319806261132" y1="212.37957240303191" x2="426.62434888776096" y2="213.43202144614943" style="stroke:#000000; stroke-width:3.779527559055118;stroke-linecap:round"/><line x1="366.46880679088673" y1="317.6244767147841" x2="367.076438529239" y2="316.5720276716666" style="stroke:#000000; stroke-width:3.779527559055118;stroke-linecap:round"/><line x1="366.46880679088673" y1="317.6244767147841" x2="367.076438529239" y2="318.67692575790164" style="stroke:#000000; stroke-width:3.779527559055118;stroke-linecap:round"/><line x1="427.2319806261132" y1="422.8693810265363" x2="426.62434888776096" y2="421.8169319834188" style="stroke:#000000; stroke-width:3.779527559055118;stroke-linecap:round"/><line x1="427.2319806261132" y1="422.8693810265363" x2="428.44724410281776" y2="422.8693810265363" style="stroke:#000000; stroke-width:3.779527559055118;stroke-linecap:round"/><line x1="548.7583282965663" y1="422.8693810265363" x2="547.5430648198618" y2="422.8693810265363" style="stroke:#000000; stroke-width:3.779527559055118;stroke-linecap:round"/><line x1="427.2319806261132" y1="422.8693810265363" x2="426.62434888776096" y2="423.9218300696538" style="stroke:#000000; stroke-width:3.779527559055118;stroke-linecap:round"/><line x1="366.46880679088673" y1="528.1142853382885" x2="367.076438529239" y2="527.0618362951709" style="stroke:#000000; stroke-width:3.779527559055118;stroke-linecap:round"/><line x1="366.46880679088673" y1="528.1142853382885" x2="367.076438529239" y2="529.1667343814061" style="stroke:#000000; stroke-width:3.779527559055118;stroke-linecap:round"/><line x1="427.2319806261132" y1="633.3591896500407" x2="426.62434888776096" y2="632.3067406069231" style="stroke:#000000; stroke-width:3.779527559055118;stroke-linecap:round"/><line x1="427.2319806261132" y1="633.3591896500407" x2="428.44724410281776" y2="633.3591896500407" style="stroke:#000000; stroke-width:3.779527559055118;stroke-linecap:round"/><line x1="548.7583282965663" y1="633.3591896500407" x2="547.5430648198618" y2="633.3591896500407" style="stroke:#000000; stroke-width:3.779527559055118;stroke-linecap:round"/><line x1="427.2319806261132" y1="633.3591896500407" x2="426.62434888776096" y2="634.4116386931582" style="stroke:#000000; stroke-width:3.779527559055118;stroke-linecap:round"/><line x1="366.46880679088673" y1="738.6040939617928" x2="367.076438529239" y2="737.5516449186753" style="stroke:#000000; stroke-width:3.779527559055118;stroke-linecap:round"/><line x1="366.46880679088673" y1="738.6040939617928" x2="367.076438529239" y2="739.6565430049104" style="stroke:#000000; stroke-width:3.779527559055118;stroke-linecap:round"/><line x1="427.2319806261132" y1="843.848998273545" x2="426.62434888776096" y2="842.7965492304274" style="stroke:#000000; stroke-width:3.779527559055118;stroke-linecap:round"/><line x1="427.2319806261132" y1="843.848998273545" x2="428.44724410281776" y2="843.848998273545" style="stroke:#000000; stroke-width:3.779527559055118;stroke-linecap:round"/><line x1="548.7583282965663" y1="843.848998273545" x2="547.5430648198618" y2="843.848998273545" style="stroke:#000000; stroke-width:3.779527559055118;stroke-linecap:round"/><line x1="609.5215021317928" y1="107.13466809127974" x2="610.7367656084973" y2="107.13466809127974" style="stroke:#000000; stroke-width:3.779527559055118;stroke-linecap:round"/><line x1="731.0478498022459" y1="107.13466809127974" x2="729.8325863255413" y2="107.13466809127974" style="stroke:#000000; stroke-width:3.779527559055118;stroke-linecap:round"/><line x1="609.5215021317928" y1="107.13466809127974" x2="608.9138703934406" y2="108.18711713439725" style="stroke:#000000; stroke-width:3.779527559055118;stroke-linecap:round"/><line x1="548.7583282965663" y1="212.37957240303191" x2="549.3659600349185" y2="211.3271233599144" style="stroke:#000000; stroke-width:3.779527559055118;stroke-linecap:round"/><line x1="548.7583282965663" y1="212.37957240303191" x2="549.3659600349185" y2="213.43202144614943" style="stroke:#000000; stroke-width:3.779527559055118;stroke-linecap:round"/><line x1="609.5215021317928" y1="317.6244767147841" x2="608.9138703934406" y2="316.5720276716666" style="stroke:#000000; stroke-width:3.779527559055118;stroke-linecap:round"/><line x1="609.5215021317928" y1="317.6244767147841" x2="610.7367656084973" y2="317.6244767147841" style="stroke:#000000; stroke-width:3.779527559055118;stroke-linecap:round"/><line x1="731.0478498022459" y1="317.6244767147841" x2="729.8325863255413" y2="317.6244767147841" style="stroke:#000000; stroke-width:3.779527559055118;stroke-linecap:round"/><line x1="609.5215021317928" y1="317.6244767147841" x2="608.9138703934406" y2="318.67692575790164" style="stroke:#000000; stroke-width:3.779527559055118;stroke-linecap:round"/><line x1="548.7583282965663" y1="422.8693810265363" x2="549.3659600349185" y2="421.8169319834188" style="stroke:#000000; stroke-width:3.779527559055118;stroke-linecap:round"/><line x1="548.7583282965663" y1="422.8693810265363" x2="549.3659600349185" y2="423.9218300696538" style="stroke:#000000; stroke-width:3.779527559055118;stroke-linecap:round"/><line x1="609.5215021317928" y1="528.1142853382885" x2="608.9138703934406" y2="527.0618362951709" style="stroke:#000000; stroke-width:3.779527559055118;stroke-linecap:round"/><line x1="609.5215021317928" y1="528.1142853382885" x2="610.7367656084973" y2="528.1142853382885" style="stroke:#000000; stroke-width:3.779527559055118;stroke-linecap:round"/><line x1="731.0478498022459" y1="528.1142853382885" x2="729.8325863255413" y2="528.1142853382885" style="stroke:#000000; stroke-width:3.779527559055118;stroke-linecap:round"/><line x1="609.5215021317928" y1="528.1142853382885" x2="608.9138703934406" y2="529.1667343814061" style="stroke:#000000; stroke-width:3.779527559055118;stroke-linecap:round"/><line x1="548.7583282965663" y1="633.3591896500407" x2="549.3659600349185" y2="632.3067406069231" style="stroke:#000000; stroke-width:3.779527559055118;stroke-linecap:round"/><line x1="548.7583282965663" y1="633.3591896500407" x2="549.3659600349185" y2="634.4116386931582" style="stroke:#000000; stroke-width:3.779527559055118;stroke-linecap:round"/><line x1="609.5215021317928" y1="738.6040939617928" x2="608.9138703934406" y2="737.5516449186753" style="stroke:#000000; stroke-width:3.779527559055118;stroke-linecap:round"/><line x1="609.5215021317928" y1="738.6040939617928" x2="610.7367656084973" y2="738.6040939617928" style="stroke:#000000; stroke-width:3.779527559055118;stroke-linecap:round"/><line x1="731.0478498022459" y1="738.6040939617928" x2="729.8325863255413" y2="738.6040939617928" style="stroke:#000000; stroke-width:3.779527559055118;stroke-linecap:round"/><line x1="609.5215021317928" y1="738.6040939617928" x2="608.9138703934406" y2="739.6565430049104" style="stroke:#000000; stroke-width:3.779527559055118;stroke-linecap:round"/><line x1="548.7583282965663" y1="843.848998273545" x2="549.3659600349185" y2="842.7965492304274" style="stroke:#000000; stroke-width:3.779527559055118;stroke-linecap:round"/><line x1="548.7583282965663" y1="843.848998273545" x2="549.3659600349185" y2="844.9014473166626" style="stroke:#000000; stroke-width:3.779527559055118;stroke-linecap:round"/><line x1="609.5215021317928" y1="949.0939025852972" x2="608.9138703934406" y2="948.0414535421796" style="stroke:#000000; stroke-width:3.779527559055118;stroke-linecap:round"/><line x1="791.8110236374723" y1="843.848998273545" x2="791.2033918991201" y2="844.9014473166626" style="stroke:#000000; stroke-width:3.779527559055118;stroke-linecap:round"/><line x1="731.0478498022459" y1="949.0939025852972" x2="731.6554815405981" y2="948.0414535421796" style="stroke:#000000; stroke-width:3.779527559055118;stroke-linecap:round"/><line x1="609.5215021317928" y1="949.0939025852972" x2="610.7367656084973" y2="949.0939025852972" style="stroke:#000000; stroke-width:3.779527559055118;stroke-linecap:round"/><line x1="731.0478498022459" y1="949.0939025852972" x2="729.8325863255413" y2="949.0939025852972" style="stroke:#000000; stroke-width:3.779527559055118;stroke-linecap:round"/><line x1="731.0478498022458" y1="107.13466809127974" x2="731.655481540598" y2="108.18711713439725" style="stroke:#000000; stroke-width:3.779527559055118;stroke-linecap:round"/><line x1="791.8110236374723" y1="212.37957240303191" x2="791.2033918991201" y2="211.3271233599144" style="stroke:#000000; stroke-width:3.779527559055118;stroke-linecap:round"/><line x1="791.8110236374723" y1="212.37957240303191" x2="791.2033918991201" y2="213.43202144614943" style="stroke:#000000; stroke-width:3.779527559055118;stroke-linecap:round"/><line x1="731.0478498022458" y1="317.6244767147841" x2="731.655481540598" y2="316.5720276716666" style="stroke:#000000; stroke-width:3.779527559055118;stroke-linecap:round"/><line x1="731.0478498022458" y1="317.6244767147841" x2="731.655481540598" y2="318.67692575790164" style="stroke:#000000; stroke-width:3.779527559055118;stroke-linecap:round"/><line x1="791.8110236374723" y1="422.8693810265363" x2="791.2033918991201" y2="421.8169319834188" style="stroke:#000000; stroke-width:3.779527559055118;stroke-linecap:round"/><line x1="791.8110236374723" y1="422.8693810265363" x2="791.2033918991201" y2="423.9218300696538" style="stroke:#000000; stroke-width:3.779527559055118;stroke-linecap:round"/><line x1="731.0478498022458" y1="528.1142853382885" x2="731.655481540598" y2="527.0618362951709" style="stroke:#000000; stroke-width:3.779527559055118;stroke-linecap:round"/><line x1="731.0478498022458" y1="528.1142853382885" x2="731.655481540598" y2="529.1667343814061" style="stroke:#000000; stroke-width:3.779527559055118;stroke-linecap:round"/><line x1="791.8110236374723" y1="633.3591896500407" x2="791.2033918991201" y2="632.3067406069231" style="stroke:#000000; stroke-width:3.779527559055118;stroke-linecap:round"/><line x1="791.8110236374723" y1="633.3591896500407" x2="791.2033918991201" y2="634.4116386931582" style="stroke:#000000; stroke-width:3.779527559055118;stroke-linecap:round"/><line x1="731.0478498022458" y1="738.6040939617928" x2="731.655481540598" y2="737.5516449186753" style="stroke:#000000; stroke-width:3.779527559055118;stroke-linecap:round"/><line x1="731.0478498022458" y1="738.6040939617928" x2="731.655481540598" y2="739.6565430049104" style="stroke:#000000; stroke-width:3.779527559055118;stroke-linecap:round"/><line x1="791.8110236374723" y1="843.848998273545" x2="791.2033918991201" y2="842.7965492304274" style="stroke:#000000; stroke-width:3.779527559055118;stroke-linecap:round"/></svg:g><svg:g inkscape:label="Hex Coordinates" inkscape:groupmode="layer"><text x="123.4161114499806" y="186.06834632509387" style="text-align:center;text-anchor:middle;font-size:21.000000pt">0101</text><text x="123.4161114499806" y="396.55815494859826" style="text-align:center;text-anchor:middle;font-size:21.000000pt">0102</text><text x="123.4161114499806" y="607.0479635721026" style="text-align:center;text-anchor:middle;font-size:21.000000pt">0103</text><text x="123.4161114499806" y="817.537772195607" style="text-align:center;text-anchor:middle;font-size:21.000000pt">0104</text><text x="305.70563295566023" y="291.3132506368461" style="text-align:center;text-anchor:middle;font-size:21.000000pt">0201</text><text x="305.70563295566023" y="501.80305926035044" style="text-align:center;text-anchor:middle;font-size:21.000000pt">0202</text><text x="305.70563295566023" y="712.2928678838548" style="text-align:center;text-anchor:middle;font-size:21.000000pt">0203</text><text x="305.70563295566023" y="922.7826765073592" style="text-align:center;text-anchor:middle;font-size:21.000000pt">0204</text><text x="487.9951544613398" y="186.06834632509387" style="text-align:center;text-anchor:middle;font-size:21.000000pt">0301</text><text x="487.9951544613398" y="396.55815494859826" style="text-align:center;text-anchor:middle;font-size:21.000000pt">0302</text><text x="487.9951544613398" y="607.0479635721026" style="text-align:center;text-anchor:middle;font-size:21.000000pt">0303</text><text x="487.9951544613398" y="817.537772195607" style="text-align:center;text-anchor:middle;font-size:21.000000pt">0304</text><text x="670.2846759670193" y="291.3132506368461" style="text-align:center;text-anchor:middle;font-size:21.000000pt">0401</text><text x="670.2846759670193" y="501.80305926035044" style="text-align:center;text-anchor:middle;font-size:21.000000pt">0402</text><text x="670.2846759670193" y="712.2928678838548" style="text-align:center;text-anchor:middle;font-size:21.000000pt">0403</text><text x="670.2846759670193" y="922.7826765073592" style="text-align:center;text-anchor:middle;font-size:21.000000pt">0404</text></svg:g><svg:g inkscape:label="Hex Centerdots" inkscape:groupmode="layer"><circle cx="123.4161114499806" cy="107.13466809127974" r="4.418503937007873" fill="black" id="hexcenter_1_1"/><circle cx="123.4161114499806" cy="317.6244767147841" r="4.418503937007873" fill="black" id="hexcenter_1_2"/><circle cx="123.4161114499806" cy="528.1142853382885" r="4.418503937007873" fill="black" id="hexcenter_1_3"/><circle cx="123.4161114499806" cy="738.6040939617928" r="4.418503937007873" fill="black" id="hexcenter_1_4"/><circle cx="305.70563295566023" cy="212.37957240303191" r="4.418503937007873" fill="black" id="hexcenter_2_1"/><circle cx="305.70563295566023" cy="422.8693810265363" r="4.418503937007873" fill="black" id="hexcenter_2_2"/><circle cx="305.70563295566023" cy="633.3591896500407" r="4.418503937007873" fill="black" id="hexcenter_2_3"/><circle cx="305.70563295566023" cy="843.848998273545" r="4.418503937007873" fill="black" id="hexcenter_2_4"/><circle cx="487.9951544613398" cy="107.13466809127974" r="4.418503937007873" fill="black" id="hexcenter_3_1"/><circle cx="487.9951544613398" cy="317.6244767147841" r="4.418503937007873" fill="black" id="hexcenter_3_2"/><circle cx="487.9951544613398" cy="528.1142853382885" r="4.418503937007873" fill="black" id="hexcenter_3_3"/><circle cx="487.9951544613398" cy="738.6040939617928" r="4.418503937007873" fill="black" id="hexcenter_3_4"/><circle cx="670.2846759670193" cy="212.37957240303191" r="4.418503937007873" fill="black" id="hexcenter_4_1"/><circle cx="670.2846759670193" cy="422.8693810265363" r="4.418503937007873" fill="black" id="hexcenter_4_2"/><circle cx="670.2846759670193" cy="633.3591896500407" r="4.418503937007873" fill="black" id="hexcenter_4_3"/><circle cx="670.2846759670193" cy="843.848998273545" r="4.418503937007873" fill="black" id="hexcenter_4_4"/></svg:g></svg>