<!-- Created with Inkscape (http://www.inkscape.org/) --><svg xmlns:dc="http://purl.org/dc/elements/1.1/" xmlns:cc="http://creativecommons.org/ns#" xmlns:rdf="http://www.w3.org/1999/02/22-rdf-syntax-ns#" xmlns:svg="http://www.w3.org/2000/svg" xmlns="http://www.w3.org/2000/svg" xmlns:sodipodi="http://sodipodi.sourceforge.net/DTD/sodipodi-0.dtd" xmlns:inkscape="http://www.inkscape.org/namespaces/inkscape" sodipodi:docname="test.svg" inkscape:version="0.92.2 (5c3e80d, 2017-08-06)" version="1.1" id="svg8084" viewBox="0.0 0.0 793.700787403 1122.51968501" height="1122.51968506" width="793.700787417">
  <sodipodi:namedview inkscape:window-maximized="1" inkscape:window-y="0" inkscape:window-x="0" inkscape:window-height="719" inkscape:window-width="1366" showgrid="false" inkscape:current-layer="svg8084" inkscape:document-units="px" inkscape:cy="714.45145" inkscape:cx="-113.30561" inkscape:zoom="0.7" inkscape:pageshadow="2" inkscape:pageopacity="0.0" borderopacity="1.0" bordercolor="#666666" pagecolor="#ffffff" id="base"/>
  <defs id="defs8086"/>
  <metadata id="metadata8089">
    <rdf:RDF>
      <cc:Work rdf:about="">
        <dc:format>image/svg+xml</dc:format>
        <dc:type rdf:resource="http://purl.org/dc/dcmitype/StillImage"/>
        <dc:title/>
      </cc:Work>
    </rdf:RDF>
  </metadata>
  <g transform="matrix(1.066667,0.000000,0.000000,1.066667,0.000000,0.000000)" id="layer1" inkscape:groupmode="layer" inkscape:label="Layer 1"/>
<svg:g inkscape:label="Hex Fill" inkscape:groupmode="layer"><polygon points="72.666667,0.666667 96.666667,42.235886 72.666667,83.805105 24.666667,83.805105 0.666667,42.235886 24.666667,0.666667" style="stroke:none;fill:#ffffff;fill-opacity:1" stroke-width="1.33333333333" stroke-linecap="round" id="hexfill_1_1"/><polygon points="72.666667,83.805105 96.666667,125.374325 72.666667,166.943544 24.666667,166.943544 0.666667,125.374325 24.666667,83.805105" style="stroke:none;fill:#ffffff;fill-opacity:1" stroke-width="1.33333333333" stroke-linecap="round" id="hexfill_1_2"/><polygon points="72.666667,166.943544 96.666667,208.512764 72.666667,250.081983 24.666667,250.081983 0.666667,208.512764 24.666667,166.943544" style="stroke:none;fill:#ffffff;fill-opacity:1" stroke-width="1.33333333333" stroke-linecap="round" id="hexfill_1_3"/><polygon points="72.666667,250.081983 96.666667,291.651202 72.666667,333.220422 24.666667,333.220422 0.666667,291.651202 24.666667,250.081983" style="stroke:none;fill:#ffffff;fill-opacity:1" stroke-width="1.33333333333" stroke-linecap="round" id="hexfill_1_4"/><polygon points="144.666667,42.235886 168.666667,83.805105 144.666667,125.374325 96.666667,125.374325 72.666667,83.805105 96.666667,42.235886" style="stroke:none;fill:#ffffff;fill-opacity:1" stroke-width="1.33333333333" stroke-linecap="round" id="hexfill_2_1"/><polygon points="144.666667,125.374325 168.666667,166.943544 144.666667,208.512764 96.666667,208.512764 72.666667,166.943544 96.666667,125.374325" style="stroke:none;fill:#ffffff;fill-opacity:1" stroke-width="1.33333333333" stroke-linecap="round" id="hexfill_2_2"/><polygon points="144.666667,208.512764 168.666667,250.081983 144.666667,291.651202 96.666667,291.651202 72.666667,250.081983 96.666667,208.512764" style="stroke:none;fill:#ffffff;fill-opacity:1" stroke-width="1.33333333333" stroke-linecap="round" id="hexfill_2_3"/><polygon points="144.666667,291.651202 168.666667,333.220422 144.666667,374.789641 96.666667,374.789641 72.666667,333.220422 96.666667,291.651202" style="stroke:none;fill:#ffffff;fill-opacity:1" stroke-width="1.33333333333" stroke-linecap="round" id="hexfill_2_4"/><polygon points="216.666667,0.666667 240.666667,42.235886 216.666667,83.805105 168.666667,83.805105 144.666667,42.235886 168.666667,0.666667" style="stroke:none;fill:#ffffff;fill-opacity:1" stroke-width="1.33333333333" stroke-linecap="round" id="hexfill_3_1"/><polygon points="216.666667,83.805105 240.666667,125.374325 216.666667,166.943544 168.666667,166.943544 144.666667,125.374325 168.666667,83.805105" style="stroke:none;fill:#ffffff;fill-opacity:1" stroke-width="1.33333333333" stroke-linecap="round" id="hexfill_3_2"/><polygon points="216.666667,166.943544 240.666667,208.512764 216.666667,250.081983 168.666667,250.081983 144.666667,208.512764 168.666667,166.943544" style="stroke:none;fill:#ffffff;fill-opacity:1" stroke-width="1.33333333333" stroke-linecap="round" id="hexfill_3_3"/><polygon points="216.666667,250.081983 240.666667,291.651202 216.666667,333.220422 168.666667,333.220422 144.666667,291.651202 168.666667,250.081983" style="stroke:none;fill:#ffffff;fill-opacity:1" stroke-width="1.33333333333" stroke-linecap="round" id="hexfill_3_4"/><polygon points="288.666667,42.235886 312.666667,83.805105 288.666667,125.374325 240.666667,125.374325 216.666667,83.805105 240.666667,42.235886" style="stroke:none;fill:#ffffff;fill-opacity:1" stroke-width="1.33333333333" stroke-linecap="round" id="hexfill_4_1"/><polygon points="288.666667,125.374325 312.666667,166.943544 288.666667,208.512764 240.666667,208.512764 216.666667,166.943544 240.666667,125.374325" style="stroke:none;fill:#ffffff;fill-opacity:1" stroke-width="1.33333333333" stroke-linecap="round" id="hexfill_4_2"/><polygon points="288.666667,208.512764 312.666667,250.081983 288.666667,291.651202 240.666667,291.651202 216.666667,250.081983 240.666667,208.512764" style="stroke:none;fill:#ffffff;fill-opacity:1" stroke-width="1.33333333333" stroke-linecap="round" id="hexfill_4_3"/><polygon points="288.666667,291.651202 312.666667,333.220422 288.666667,374.789641 240.666667,374.789641 216.666667,333.220422 240.666667,291.651202" style="stroke:none;fill:#ffffff;fill-opacity:1" stroke-width="1.33333333333" stroke-linecap="round" id="hexfill_4_4"/></svg:g><svg:g inkscape:label="Hex Circles" inkscape:groupmode="layer"><circle cx="48.6666666667" cy="42.2358860483" r="41.5692193817" fill="black" id="hexcircle_1_1"/><circle cx="48.6666666667" cy="125.374324812" r="41.5692193817" fill="black" id="hexcircle_1_2"/><circle cx="48.6666666667" cy="208.512763575" r="41.5692193817" fill="black" id="hexcircle_1_3"/><circle cx="48.6666666667" cy="291.651202338" r="41.5692193817" fill="black" id="hexcircle_1_4"/><circle cx="120.666666667" cy="83.80510543" r="41.5692193817" fill="black" id="hexcircle_2_1"/><circle cx="120.666666667" cy="166.943544193" r="41.5692193817" fill="black" id="hexcircle_2_2"/><circle cx="120.666666667" cy="250.081982957" r="41.5692193817" fill="black" id="hexcircle_2_3"/><circle cx="120.666666667" cy="333.22042172" r="41.5692193817" fill="black" id="hexcircle_2_4"/><circle cx="192.666666667" cy="42.2358860483" r="41.5692193817" fill="black" id="hexcircle_3_1"/><circle cx="192.666666667" cy="125.374324812" r="41.5692193817" fill="black" id="hexcircle_3_2"/><circle cx="192.666666667" cy="208.512763575" r="41.5692193817" fill="black" id="hexcircle_3_3"/><circle cx="192.666666667" cy="291.651202338" r="41.5692193817" fill="black" id="hexcircle_3_4"/><circle cx="264.666666667" cy="83.80510543" r="41.5692193817" fill="black" id="hexcircle_4_1"/><circle cx="264.666666667" cy="166.943544193" r="41.5692193817" fill="black" id="hexcircle_4_2"/><circle cx="264.666666667" cy="250.081982957" r="41.5692193817" fill="black" id="hexcircle_4_3"/><circle cx="264.666666667" cy="333.22042172" r="41.5692193817" fill="black" id="hexcircle_4_4"/></svg:g><svg:g inkscape:label="Hex Grid" inkscape:groupmode="layer" style="display:none"><line x1="24.6666666667" y1="0.666666666665" x2="72.6666666667" y2="0.666666666665" stroke="black" stroke-width="1.33333333333" stroke-linecap="round"/><line x1="24.6666666667" y1="0.666666666665" x2="0.666666666665" y2="42.2358860483" stroke="black" stroke-width="1.33333333333" stroke-linecap="round"/><line x1="72.6666666667" y1="0.666666666665" x2="96.6666666667" y2="42.2358860483" stroke="black" stroke-width="1.33333333333" stroke-linecap="round"/><line x1="0.666666666665" y1="42.2358860483" x2="24.6666666667" y2="83.80510543" stroke="black" stroke-width="1.33333333333" stroke-linecap="round"/><line x1="24.6666666667" y1="83.80510543" x2="72.6666666667" y2="83.80510543" stroke="black" stroke-width="1.33333333333" stroke-linecap="round"/><line x1="24.6666666667" y1="83.80510543" x2="0.666666666665" y2="125.374324812" stroke="black" stroke-width="1.33333333333" stroke-linecap="round"/><line x1="0.666666666665" y1="125.374324812" x2="24.6666666667" y2="166.943544193" stroke="black" stroke-width="1.33333333333" stroke-linecap="round"/><line x1="24.6666666667" y1="166.943544193" x2="72.6666666667" y2="166.943544193" stroke="black" stroke-width="1.33333333333" stroke-linecap="round"/><line x1="24.6666666667" y1="166.943544193" x2="0.666666666665" y2="208.512763575" stroke="black" stroke-width="1.33333333333" stroke-linecap="round"/><line x1="0.666666666665" y1="208.512763575" x2="24.6666666667" y2="250.081982957" stroke="black" stroke-width="1.33333333333" stroke-linecap="round"/><line x1="24.6666666667" y1="250.081982957" x2="72.6666666667" y2="250.081982957" stroke="black" stroke-width="1.33333333333" stroke-linecap="round"/><line x1="24.6666666667" y1="250.081982957" x2="0.666666666665" y2="291.651202338" stroke="black" stroke-width="1.33333333333" stroke-linecap="round"/><line x1="0.666666666665" y1="291.651202338" x2="24.6666666667" y2="333.22042172" stroke="black" stroke-width="1.33333333333" stroke-linecap="round"/><line x1="24.6666666667" y1="333.22042172" x2="72.6666666667" y2="333.22042172" stroke="black" stroke-width="1.33333333333" stroke-linecap="round"/><line x1="96.6666666667" y1="42.2358860483" x2="144.666666667" y2="42.2358860483" stroke="black" stroke-width="1.33333333333" stroke-linecap="round"/><line x1="96.6666666667" y1="42.2358860483" x2="72.6666666667" y2="83.80510543" stroke="black" stroke-width="1.33333333333" stroke-linecap="round"/><line x1="72.6666666667" y1="83.80510543" x2="96.6666666667" y2="125.374324812" stroke="black" stroke-width="1.33333333333" stroke-linecap="round"/><line x1="96.6666666667" y1="125.374324812" x2="144.666666667" y2="125.374324812" stroke="black" stroke-width="1.33333333333" stroke-linecap="round"/><line x1="96.6666666667" y1="125.374324812" x2="72.6666666667" y2="166.943544193" stroke="black" stroke-width="1.33333333333" stroke-linecap="round"/><line x1="72.6666666667" y1="166.943544193" x2="96.6666666667" y2="208.512763575" stroke="black" stroke-width="1.33333333333" stroke-linecap="round"/><line x1="96.6666666667" y1="208.512763575" x2="144.666666667" y2="208.512763575" stroke="black" stroke-width="1.33333333333" stroke-linecap="round"/><line x1="96.6666666667" y1="208.512763575" x2="72.6666666667" y2="250.081982957" stroke="black" stroke-width="1.33333333333" stroke-linecap="round"/><line x1="72.6666666667" y1="250.081982957" x2="96.6666666667" y2="291.651202338" stroke="black" stroke-width="1.33333333333" stroke-linecap="round"/><line x1="96.6666666667" y1="291.651202338" x2="144.666666667" y2="291.651202338" stroke="black" stroke-width="1.33333333333" stroke-linecap="round"/><line x1="96.6666666667" y1="291.651202338" x2="72.6666666667" y2="333.22042172" stroke="black" stroke-width="1.33333333333" stroke-linecap="round"/><line x1="72.6666666667" y1="333.22042172" x2="96.6666666667" y2="374.789641102" stroke="black" stroke-width="1.33333333333" stroke-linecap="round"/><line x1="168.666666667" y1="333.22042172" x2="144.666666667" y2="374.789641102" stroke="black" stroke-width="1.33333333333" stroke-linecap="round"/><line x1="96.6666666667" y1="374.789641102" x2="144.666666667" y2="374.789641102" stroke="black" stroke-width="1.33333333333" stroke-linecap="round"/><line x1="168.666666667" y1="0.666666666665" x2="216.666666667" y2="0.666666666665" stroke="black" stroke-width="1.33333333333" stroke-linecap="round"/><line x1="168.666666667" y1="0.666666666665" x2="144.666666667" y2="42.2358860483" stroke="black" stroke-width="1.33333333333" stroke-linecap="round"/><line x1="216.666666667" y1="0.666666666665" x2="240.666666667" y2="42.2358860483" stroke="black" stroke-width="1.33333333333" stroke-linecap="round"/><line x1="144.666666667" y1="42.2358860483" x2="168.666666667" y2="83.80510543" stroke="black" stroke-width="1.33333333333" stroke-linecap="round"/><line x1="168.666666667" y1="83.80510543" x2="216.666666667" y2="83.80510543" stroke="black" stroke-width="1.33333333333" stroke-linecap="round"/><line x1="168.666666667" y1="83.80510543" x2="144.666666667" y2="125.374324812" stroke="black" stroke-width="1.33333333333" stroke-linecap="round"/><line x1="144.666666667" y1="125.374324812" x2="168.666666667" y2="166.943544193" stroke="black" stroke-width="1.33333333333" stroke-linecap="round"/><line x1="168.666666667" y1="166.943544193" x2="216.666666667" y2="166.943544193" stroke="black" stroke-width="1.33333333333" stroke-linecap="round"/><line x1="168.666666667" y1="166.943544193" x2="144.666666667" y2="208.512763575" stroke="black" stroke-width="1.33333333333" stroke-linecap="round"/><line x1="144.666666667" y1="208.512763575" x2="168.666666667" y2="250.081982957" stroke="black" stroke-width="1.33333333333" stroke-linecap="round"/><line x1="168.666666667" y1="250.081982957" x2="216.666666667" y2="250.081982957" stroke="black" stroke-width="1.33333333333" stroke-linecap="round"/><line x1="168.666666667" y1="250.081982957" x2="144.666666667" y2="291.651202338" stroke="black" stroke-width="1.33333333333" stroke-linecap="round"/><line x1="144.666666667" y1="291.651202338" x2="168.666666667" y2="333.22042172" stroke="black" stroke-width="1.33333333333" stroke-linecap="round"/><line x1="168.666666667" y1="333.22042172" x2="216.666666667" y2="333.22042172" stroke="black" stroke-width="1.33333333333" stroke-linecap="round"/><line x1="240.666666667" y1="42.2358860483" x2="288.666666667" y2="42.2358860483" stroke="black" stroke-width="1.33333333333" stroke-linecap="round"/><line x1="240.666666667" y1="42.2358860483" x2="216.666666667" y2="83.80510543" stroke="black" stroke-width="1.33333333333" stroke-linecap="round"/><line x1="216.666666667" y1="83.80510543" x2="240.666666667" y2="125.374324812" stroke="black" stroke-width="1.33333333333" stroke-linecap="round"/><line x1="240.666666667" y1="125.374324812" x2="288.666666667" y2="125.374324812" stroke="black" stroke-width="1.33333333333" stroke-linecap="round"/><line x1="240.666666667" y1="125.374324812" x2="216.666666667" y2="166.943544193" stroke="black" stroke-width="1.33333333333" stroke-linecap="round"/><line x1="216.666666667" y1="166.943544193" x2="240.666666667" y2="208.512763575" stroke="black" stroke-width="1.33333333333" stroke-linecap="round"/><line x1="240.666666667" y1="208.512763575" x2="288.666666667" y2="208.512763575" stroke="black" stroke-width="1.33333333333" stroke-linecap="round"/><line x1="240.666666667" y1="208.512763575" x2="216.666666667" y2="250.081982957" stroke="black" stroke-width="1.33333333333" stroke-linecap="round"/><line x1="216.666666667" y1="250.081982957" x2="240.666666667" y2="291.651202338" stroke="black" stroke-width="1.33333333333" stroke-linecap="round"/><line x1="240.666666667" y1="291.651202338" x2="288.666666667" y2="291.651202338" stroke="black" stroke-width="1.33333333333" stroke-linecap="round"/><line x1="240.666666667" y1="291.651202338" x2="216.666666667" y2="333.22042172" stroke="black" stroke-width="1.33333333333" stroke-linecap="round"/><line x1="216.666666667" y1="333.22042172" x2="240.666666667" y2="374.789641102" stroke="black" stroke-width="1.33333333333" stroke-linecap="round"/><line x1="312.666666667" y1="333.22042172" x2="288.666666667" y2="374.789641102" stroke="black" stroke-width="1.33333333333" stroke-linecap="round"/><line x1="240.666666667" y1="374.789641102" x2="288.666666667" y2="374.789641102" stroke="black" stroke-width="1.33333333333" stroke-linecap="round"/><line x1="288.666666667" y1="42.2358860483" x2="312.666666667" y2="83.80510543" stroke="black" stroke-width="1.33333333333" stroke-linecap="round"/><line x1="312.666666667" y1="83.80510543" x2="288.666666667" y2="125.374324812" stroke="black" stroke-width="1.33333333333" stroke-linecap="round"/><line x1="288.666666667" y1="125.374324812" x2="312.666666667" y2="166.943544193" stroke="black" stroke-width="1.33333333333" stroke-linecap="round"/><line x1="312.666666667" y1="166.943544193" x2="288.666666667" y2="208.512763575" stroke="black" stroke-width="1.33333333333" stroke-linecap="round"/><line x1="288.666666667" y1="208.512763575" x2="312.666666667" y2="250.081982957" stroke="black" stroke-width="1.33333333333" stroke-linecap="round"/><line x1="312.666666667" y1="250.081982957" x2="288.666666667" y2="291.651202338" stroke="black" stroke-width="1.33333333333" stroke-linecap="round"/><line x1="288.666666667" y1="291.651202338" x2="312.666666667" y2="333.22042172" stroke="black" stroke-width="1.33333333333" stroke-linecap="round"/></svg:g><svg:g inkscape:label="Hex Vertices" inkscape:groupmode="layer"><line x1="24.6666666667" y1="0.666666666665" x2="27.0666666667" y2="0.666666666665" stroke="black" stroke-width="1.33333333333" stroke-linecap="round"/><line x1="72.6666666667" y1="0.666666666665" x2="70.2666666667" y2="0.666666666665" stroke="black" stroke-width="1.33333333333" stroke-linecap="round"/><line x1="24.6666666667" y1="0.666666666665" x2="23.4666666667" y2="2.74512763575" stroke="black" stroke-width="1.33333333333" stroke-linecap="round"/><line x1="0.666666666665" y1="42.2358860483" x2="1.86666666667" y2="40.1574250792" stroke="black" stroke-width="1.33333333333" stroke-linecap="round"/><line x1="72.6666666667" y1="0.666666666665" x2="73.8666666667" y2="2.74512763575" stroke="black" stroke-width="1.33333333333" stroke-linecap="round"/><line x1="96.6666666667" y1="42.2358860483" x2="95.4666666667" y2="40.1574250792" stroke="black" stroke-width="1.33333333333" stroke-linecap="round"/><line x1="0.666666666665" y1="42.2358860483" x2="1.86666666667" y2="44.3143470174" stroke="black" stroke-width="1.33333333333" stroke-linecap="round"/><line x1="24.6666666667" y1="83.80510543" x2="23.4666666667" y2="81.7266444609" stroke="black" stroke-width="1.33333333333" stroke-linecap="round"/><line x1="24.6666666667" y1="83.80510543" x2="27.0666666667" y2="83.80510543" stroke="black" stroke-width="1.33333333333" stroke-linecap="round"/><line x1="72.6666666667" y1="83.80510543" x2="70.2666666667" y2="83.80510543" stroke="black" stroke-width="1.33333333333" stroke-linecap="round"/><line x1="24.6666666667" y1="83.80510543" x2="23.4666666667" y2="85.8835663991" stroke="black" stroke-width="1.33333333333" stroke-linecap="round"/><line x1="0.666666666665" y1="125.374324812" x2="1.86666666667" y2="123.295863843" stroke="black" stroke-width="1.33333333333" stroke-linecap="round"/><line x1="0.666666666665" y1="125.374324812" x2="1.86666666667" y2="127.452785781" stroke="black" stroke-width="1.33333333333" stroke-linecap="round"/><line x1="24.6666666667" y1="166.943544193" x2="23.4666666667" y2="164.865083224" stroke="black" stroke-width="1.33333333333" stroke-linecap="round"/><line x1="24.6666666667" y1="166.943544193" x2="27.0666666667" y2="166.943544193" stroke="black" stroke-width="1.33333333333" stroke-linecap="round"/><line x1="72.6666666667" y1="166.943544193" x2="70.2666666667" y2="166.943544193" stroke="black" stroke-width="1.33333333333" stroke-linecap="round"/><line x1="24.6666666667" y1="166.943544193" x2="23.4666666667" y2="169.022005162" stroke="black" stroke-width="1.33333333333" stroke-linecap="round"/><line x1="0.666666666665" y1="208.512763575" x2="1.86666666667" y2="206.434302606" stroke="black" stroke-width="1.33333333333" stroke-linecap="round"/><line x1="0.666666666665" y1="208.512763575" x2="1.86666666667" y2="210.591224544" stroke="black" stroke-width="1.33333333333" stroke-linecap="round"/><line x1="24.6666666667" y1="250.081982957" x2="23.4666666667" y2="248.003521988" stroke="black" stroke-width="1.33333333333" stroke-linecap="round"/><line x1="24.6666666667" y1="250.081982957" x2="27.0666666667" y2="250.081982957" stroke="black" stroke-width="1.33333333333" stroke-linecap="round"/><line x1="72.6666666667" y1="250.081982957" x2="70.2666666667" y2="250.081982957" stroke="black" stroke-width="1.33333333333" stroke-linecap="round"/><line x1="24.6666666667" y1="250.081982957" x2="23.4666666667" y2="252.160443926" stroke="black" stroke-width="1.33333333333" stroke-linecap="round"/><line x1="0.666666666665" y1="291.651202338" x2="1.86666666667" y2="289.572741369" stroke="black" stroke-width="1.33333333333" stroke-linecap="round"/><line x1="0.666666666665" y1="291.651202338" x2="1.86666666667" y2="293.729663307" stroke="black" stroke-width="1.33333333333" stroke-linecap="round"/><line x1="24.6666666667" y1="333.22042172" x2="23.4666666667" y2="331.141960751" stroke="black" stroke-width="1.33333333333" stroke-linecap="round"/><line x1="24.6666666667" y1="333.22042172" x2="27.0666666667" y2="333.22042172" stroke="black" stroke-width="1.33333333333" stroke-linecap="round"/><line x1="72.6666666667" y1="333.22042172" x2="70.2666666667" y2="333.22042172" stroke="black" stroke-width="1.33333333333" stroke-linecap="round"/><line x1="96.6666666667" y1="42.2358860483" x2="99.0666666667" y2="42.2358860483" stroke="black" stroke-width="1.33333333333" stroke-linecap="round"/><line x1="144.666666667" y1="42.2358860483" x2="142.266666667" y2="42.2358860483" stroke="black" stroke-width="1.33333333333" stroke-linecap="round"/><line x1="96.6666666667" y1="42.2358860483" x2="95.4666666667" y2="44.3143470174" stroke="black" stroke-width="1.33333333333" stroke-linecap="round"/><line x1="72.6666666667" y1="83.80510543" x2="73.8666666667" y2="81.7266444609" stroke="black" stroke-width="1.33333333333" stroke-linecap="round"/><line x1="72.6666666667" y1="83.80510543" x2="73.8666666667" y2="85.8835663991" stroke="black" stroke-width="1.33333333333" stroke-linecap="round"/><line x1="96.6666666667" y1="125.374324812" x2="95.4666666667" y2="123.295863843" stroke="black" stroke-width="1.33333333333" stroke-linecap="round"/><line x1="96.6666666667" y1="125.374324812" x2="99.0666666667" y2="125.374324812" stroke="black" stroke-width="1.33333333333" stroke-linecap="round"/><line x1="144.666666667" y1="125.374324812" x2="142.266666667" y2="125.374324812" stroke="black" stroke-width="1.33333333333" stroke-linecap="round"/><line x1="96.6666666667" y1="125.374324812" x2="95.4666666667" y2="127.452785781" stroke="black" stroke-width="1.33333333333" stroke-linecap="round"/><line x1="72.6666666667" y1="166.943544193" x2="73.8666666667" y2="164.865083224" stroke="black" stroke-width="1.33333333333" stroke-linecap="round"/><line x1="72.6666666667" y1="166.943544193" x2="73.8666666667" y2="169.022005162" stroke="black" stroke-width="1.33333333333" stroke-linecap="round"/><line x1="96.6666666667" y1="208.512763575" x2="95.4666666667" y2="206.434302606" stroke="black" stroke-width="1.33333333333" stroke-linecap="round"/><line x1="96.6666666667" y1="208.512763575" x2="99.0666666667" y2="208.512763575" stroke="black" stroke-width="1.33333333333" stroke-linecap="round"/><line x1="144.666666667" y1="208.512763575" x2="142.266666667" y2="208.512763575" stroke="black" stroke-width="1.33333333333" stroke-linecap="round"/><line x1="96.6666666667" y1="208.512763575" x2="95.4666666667" y2="210.591224544" stroke="black" stroke-width="1.33333333333" stroke-linecap="round"/><line x1="72.6666666667" y1="250.081982957" x2="73.8666666667" y2="248.003521988" stroke="black" stroke-width="1.33333333333" stroke-linecap="round"/><line x1="72.6666666667" y1="250.081982957" x2="73.8666666667" y2="252.160443926" stroke="black" stroke-width="1.33333333333" stroke-linecap="round"/><line x1="96.6666666667" y1="291.651202338" x2="95.4666666667" y2="289.572741369" stroke="black" stroke-width="1.33333333333" stroke-linecap="round"/><line x1="96.6666666667" y1="291.651202338" x2="99.0666666667" y2="291.651202338" stroke="black" stroke-width="1.33333333333" stroke-linecap="round"/><line x1="144.666666667" y1="291.651202338" x2="142.266666667" y2="291.651202338" stroke="black" stroke-width="1.33333333333" stroke-linecap="round"/><line x1="96.6666666667" y1="291.651202338" x2="95.4666666667" y2="293.729663307" stroke="black" stroke-width="1.33333333333" stroke-linecap="round"/><line x1="72.6666666667" y1="333.22042172" x2="73.8666666667" y2="331.141960751" stroke="black" stroke-width="1.33333333333" stroke-linecap="round"/><line x1="72.6666666667" y1="333.22042172" x2="73.8666666667" y2="335.298882689" stroke="black" stroke-width="1.33333333333" stroke-linecap="round"/><line x1="96.6666666667" y1="374.789641102" x2="95.4666666667" y2="372.711180132" stroke="black" stroke-width="1.33333333333" stroke-linecap="round"/><line x1="168.666666667" y1="333.22042172" x2="167.466666667" y2="335.298882689" stroke="black" stroke-width="1.33333333333" stroke-linecap="round"/><line x1="144.666666667" y1="374.789641102" x2="145.866666667" y2="372.711180132" stroke="black" stroke-width="1.33333333333" stroke-linecap="round"/><line x1="96.6666666667" y1="374.789641102" x2="99.0666666667" y2="374.789641102" stroke="black" stroke-width="1.33333333333" stroke-linecap="round"/><line x1="144.666666667" y1="374.789641102" x2="142.266666667" y2="374.789641102" stroke="black" stroke-width="1.33333333333" stroke-linecap="round"/><line x1="168.666666667" y1="0.666666666665" x2="171.066666667" y2="0.666666666665" stroke="black" stroke-width="1.33333333333" stroke-linecap="round"/><line x1="216.666666667" y1="0.666666666665" x2="214.266666667" y2="0.666666666665" stroke="black" stroke-width="1.33333333333" stroke-linecap="round"/><line x1="168.666666667" y1="0.666666666665" x2="167.466666667" y2="2.74512763575" stroke="black" stroke-width="1.33333333333" stroke-linecap="round"/><line x1="144.666666667" y1="42.2358860483" x2="145.866666667" y2="40.1574250792" stroke="black" stroke-width="1.33333333333" stroke-linecap="round"/><line x1="216.666666667" y1="0.666666666665" x2="217.866666667" y2="2.74512763575" stroke="black" stroke-width="1.33333333333" stroke-linecap="round"/><line x1="240.666666667" y1="42.2358860483" x2="239.466666667" y2="40.1574250792" stroke="black" stroke-width="1.33333333333" stroke-linecap="round"/><line x1="144.666666667" y1="42.2358860483" x2="145.866666667" y2="44.3143470174" stroke="black" stroke-width="1.33333333333" stroke-linecap="round"/><line x1="168.666666667" y1="83.80510543" x2="167.466666667" y2="81.7266444609" stroke="black" stroke-width="1.33333333333" stroke-linecap="round"/><line x1="168.666666667" y1="83.80510543" x2="171.066666667" y2="83.80510543" stroke="black" stroke-width="1.33333333333" stroke-linecap="round"/><line x1="216.666666667" y1="83.80510543" x2="214.266666667" y2="83.80510543" stroke="black" stroke-width="1.33333333333" stroke-linecap="round"/><line x1="168.666666667" y1="83.80510543" x2="167.466666667" y2="85.8835663991" stroke="black" stroke-width="1.33333333333" stroke-linecap="round"/><line x1="144.666666667" y1="125.374324812" x2="145.866666667" y2="123.295863843" stroke="black" stroke-width="1.33333333333" stroke-linecap="round"/><line x1="144.666666667" y1="125.374324812" x2="145.866666667" y2="127.452785781" stroke="black" stroke-width="1.33333333333" stroke-linecap="round"/><line x1="168.666666667" y1="166.943544193" x2="167.466666667" y2="164.865083224" stroke="black" stroke-width="1.33333333333" stroke-linecap="round"/><line x1="168.666666667" y1="166.943544193" x2="171.066666667" y2="166.943544193" stroke="black" stroke-width="1.33333333333" stroke-linecap="round"/><line x1="216.666666667" y1="166.943544193" x2="214.266666667" y2="166.943544193" stroke="black" stroke-width="1.33333333333" stroke-linecap="round"/><line x1="168.666666667" y1="166.943544193" x2="167.466666667" y2="169.022005162" stroke="black" stroke-width="1.33333333333" stroke-linecap="round"/><line x1="144.666666667" y1="208.512763575" x2="145.866666667" y2="206.434302606" stroke="black" stroke-width="1.33333333333" stroke-linecap="round"/><line x1="144.666666667" y1="208.512763575" x2="145.866666667" y2="210.591224544" stroke="black" stroke-width="1.33333333333" stroke-linecap="round"/><line x1="168.666666667" y1="250.081982957" x2="167.466666667" y2="248.003521988" stroke="black" stroke-width="1.33333333333" stroke-linecap="round"/><line x1="168.666666667" y1="250.081982957" x2="171.066666667" y2="250.081982957" stroke="black" stroke-width="1.33333333333" stroke-linecap="round"/><line x1="216.666666667" y1="250.081982957" x2="214.266666667" y2="250.081982957" stroke="black" stroke-width="1.33333333333" stroke-linecap="round"/><line x1="168.666666667" y1="250.081982957" x2="167.466666667" y2="252.160443926" stroke="black" stroke-width="1.33333333333" stroke-linecap="round"/><line x1="144.666666667" y1="291.651202338" x2="145.866666667" y2="289.572741369" stroke="black" stroke-width="1.33333333333" stroke-linecap="round"/><line x1="144.666666667" y1="291.651202338" x2="145.866666667" y2="293.729663307" stroke="black" stroke-width="1.33333333333" stroke-linecap="round"/><line x1="168.666666667" y1="333.22042172" x2="167.466666667" y2="331.141960751" stroke="black" stroke-width="1.33333333333" stroke-linecap="round"/><line x1="168.666666667" y1="333.22042172" x2="171.066666667" y2="333.22042172" stroke="black" stroke-width="1.33333333333" stroke-linecap="round"/><line x1="216.666666667" y1="333.22042172" x2="214.266666667" y2="333.22042172" stroke="black" stroke-width="1.33333333333" stroke-linecap="round"/><line x1="240.666666667" y1="42.2358860483" x2="243.066666667" y2="42.2358860483" stroke="black" stroke-width="1.33333333333" stroke-linecap="round"/><line x1="288.666666667" y1="42.2358860483" x2="286.266666667" y2="42.2358860483" stroke="black" stroke-width="1.33333333333" stroke-linecap="round"/><line x1="240.666666667" y1="42.2358860483" x2="239.466666667" y2="44.3143470174" stroke="black" stroke-width="1.33333333333" stroke-linecap="round"/><line x1="216.666666667" y1="83.80510543" x2="217.866666667" y2="81.7266444609" stroke="black" stroke-width="1.33333333333" stroke-linecap="round"/><line x1="216.666666667" y1="83.80510543" x2="217.866666667" y2="85.8835663991" stroke="black" stroke-width="1.33333333333" stroke-linecap="round"/><line x1="240.666666667" y1="125.374324812" x2="239.466666667" y2="123.295863843" stroke="black" stroke-width="1.33333333333" stroke-linecap="round"/><line x1="240.666666667" y1="125.374324812" x2="243.066666667" y2="125.374324812" stroke="black" stroke-width="1.33333333333" stroke-linecap="round"/><line x1="288.666666667" y1="125.374324812" x2="286.266666667" y2="125.374324812" stroke="black" stroke-width="1.33333333333" stroke-linecap="round"/><line x1="240.666666667" y1="125.374324812" x2="239.466666667" y2="127.452785781" stroke="black" stroke-width="1.33333333333" stroke-linecap="round"/><line x1="216.666666667" y1="166.943544193" x2="217.866666667" y2="164.865083224" stroke="black" stroke-width="1.33333333333" stroke-linecap="round"/><line x1="216.666666667" y1="166.943544193" x2="217.866666667" y2="169.022005162" stroke="black" stroke-width="1.33333333333" stroke-linecap="round"/><line x1="240.666666667" y1="208.512763575" x2="239.466666667" y2="206.434302606" stroke="black" stroke-width="1.33333333333" stroke-linecap="round"/><line x1="240.666666667" y1="208.512763575" x2="243.066666667" y2="208.512763575" stroke="black" stroke-width="1.33333333333" stroke-linecap="round"/><line x1="288.666666667" y1="208.512763575" x2="286.266666667" y2="208.512763575" stroke="black" stroke-width="1.33333333333" stroke-linecap="round"/><line x1="240.666666667" y1="208.512763575" x2="239.466666667" y2="210.591224544" stroke="black" stroke-width="1.33333333333" stroke-linecap="round"/><line x1="216.666666667" y1="250.081982957" x2="217.866666667" y2="248.003521988" stroke="black" stroke-width="1.33333333333" stroke-linecap="round"/><line x1="216.666666667" y1="250.081982957" x2="217.866666667" y2="252.160443926" stroke="black" stroke-width="1.33333333333" stroke-linecap="round"/><line x1="240.666666667" y1="291.651202338" x2="239.466666667" y2="289.572741369" stroke="black" stroke-width="1.33333333333" stroke-linecap="round"/><line x1="240.666666667" y1="291.651202338" x2="243.066666667" y2="291.651202338" stroke="black" stroke-width="1.33333333333" stroke-linecap="round"/><line x1="288.666666667" y1="291.651202338" x2="286.266666667" y2="291.651202338" stroke="black" stroke-width="1.33333333333" stroke-linecap="round"/><line x1="240.666666667" y1="291.651202338" x2="239.466666667" y2="293.729663307" stroke="black" stroke-width="1.33333333333" stroke-linecap="round"/><line x1="216.666666667" y1="333.22042172" x2="217.866666667" y2="331.141960751" stroke="black" stroke-width="1.33333333333" stroke-linecap="round"/><line x1="216.666666667" y1="333.22042172" x2="217.866666667" y2="335.298882689" stroke="black" stroke-width="1.33333333333" stroke-linecap="round"/><line x1="240.666666667" y1="374.789641102" x2="239.466666667" y2="372.711180132" stroke="black" stroke-width="1.33333333333" stroke-linecap="round"/><line x1="312.666666667" y1="333.22042172" x2="311.466666667" y2="335.298882689" stroke="black" stroke-width="1.33333333333" stroke-linecap="round"/><line x1="288.666666667" y1="374.789641102" x2="289.866666667" y2="372.711180132" stroke="black" stroke-width="1.33333333333" stroke-linecap="round"/><line x1="240.666666667" y1="374.789641102" x2="243.066666667" y2="374.789641102" stroke="black" stroke-width="1.33333333333" stroke-linecap="round"/><line x1="288.666666667" y1="374.789641102" x2="286.266666667" y2="374.789641102" stroke="black" stroke-width="1.33333333333" stroke-linecap="round"/><line x1="288.666666667" y1="42.2358860483" x2="289.866666667" y2="44.3143470174" stroke="black" stroke-width="1.33333333333" stroke-linecap="round"/><line x1="312.666666667" y1="83.80510543" x2="311.466666667" y2="81.7266444609" stroke="black" stroke-width="1.33333333333" stroke-linecap="round"/><line x1="312.666666667" y1="83.80510543" x2="311.466666667" y2="85.8835663991" stroke="black" stroke-width="1.33333333333" stroke-linecap="round"/><line x1="288.666666667" y1="125.374324812" x2="289.866666667" y2="123.295863843" stroke="black" stroke-width="1.33333333333" stroke-linecap="round"/><line x1="288.666666667" y1="125.374324812" x2="289.866666667" y2="127.452785781" stroke="black" stroke-width="1.33333333333" stroke-linecap="round"/><line x1="312.666666667" y1="166.943544193" x2="311.466666667" y2="164.865083224" stroke="black" stroke-width="1.33333333333" stroke-linecap="round"/><line x1="312.666666667" y1="166.943544193" x2="311.466666667" y2="169.022005162" stroke="black" stroke-width="1.33333333333" stroke-linecap="round"/><line x1="288.666666667" y1="208.512763575" x2="289.866666667" y2="206.434302606" stroke="black" stroke-width="1.33333333333" stroke-linecap="round"/><line x1="288.666666667" y1="208.512763575" x2="289.866666667" y2="210.591224544" stroke="black" stroke-width="1.33333333333" stroke-linecap="round"/><line x1="312.666666667" y1="250.081982957" x2="311.466666667" y2="248.003521988" stroke="black" stroke-width="1.33333333333" stroke-linecap="round"/><line x1="312.666666667" y1="250.081982957" x2="311.466666667" y2="252.160443926" stroke="black" stroke-width="1.33333333333" stroke-linecap="round"/><line x1="288.666666667" y1="291.651202338" x2="289.866666667" y2="289.572741369" stroke="black" stroke-width="1.33333333333" stroke-linecap="round"/><line x1="288.666666667" y1="291.651202338" x2="289.866666667" y2="293.729663307" stroke="black" stroke-width="1.33333333333" stroke-linecap="round"/><line x1="312.666666667" y1="333.22042172" x2="311.466666667" y2="331.141960751" stroke="black" stroke-width="1.33333333333" stroke-linecap="round"/></svg:g><svg:g inkscape:label="Hex Coordinates" inkscape:groupmode="layer"><text x="48.6666666667" y="73.4128005846" style="text-align:center;text-anchor:middle;font-size:8.000000pt">11</text><text x="48.6666666667" y="156.551239348" style="text-align:center;text-anchor:middle;font-size:8.000000pt">12</text><text x="48.6666666667" y="239.689678111" style="text-align:center;text-anchor:middle;font-size:8.000000pt">13</text><text x="48.6666666667" y="322.828116874" style="text-align:center;text-anchor:middle;font-size:8.000000pt">14</text><text x="120.666666667" y="114.982019966" style="text-align:center;text-anchor:middle;font-size:8.000000pt">21</text><text x="120.666666667" y="198.12045873" style="text-align:center;text-anchor:middle;font-size:8.000000pt">22</text><text x="120.666666667" y="281.258897493" style="text-align:center;text-anchor:middle;font-size:8.000000pt">23</text><text x="120.666666667" y="364.397336256" style="text-align:center;text-anchor:middle;font-size:8.000000pt">24</text><text x="192.666666667" y="73.4128005846" style="text-align:center;text-anchor:middle;font-size:8.000000pt">31</text><text x="192.666666667" y="156.551239348" style="text-align:center;text-anchor:middle;font-size:8.000000pt">32</text><text x="192.666666667" y="239.689678111" style="text-align:center;text-anchor:middle;font-size:8.000000pt">33</text><text x="192.666666667" y="322.828116874" style="text-align:center;text-anchor:middle;font-size:8.000000pt">34</text><text x="264.666666667" y="114.982019966" style="text-align:center;text-anchor:middle;font-size:8.000000pt">41</text><text x="264.666666667" y="198.12045873" style="text-align:center;text-anchor:middle;font-size:8.000000pt">42</text><text x="264.666666667" y="281.258897493" style="text-align:center;text-anchor:middle;font-size:8.000000pt">43</text><text x="264.666666667" y="364.397336256" style="text-align:center;text-anchor:middle;font-size:8.000000pt">44</text></svg:g><svg:g inkscape:label="Hex Centerdots" inkscape:groupmode="layer"><circle cx="48.6666666667" cy="42.2358860483" r="1.55875" fill="black" id="hexcenter_1_1"/><circle cx="48.6666666667" cy="125.374324812" r="1.55875" fill="black" id="hexcenter_1_2"/><circle cx="48.6666666667" cy="208.512763575" r="1.55875" fill="black" id="hexcenter_1_3"/><circle cx="48.6666666667" cy="291.651202338" r="1.55875" fill="black" id="hexcenter_1_4"/><circle cx="120.666666667" cy="83.80510543" r="1.55875" fill="black" id="hexcenter_2_1"/><circle cx="120.666666667" cy="166.943544193" r="1.55875" fill="black" id="hexcenter_2_2"/><circle cx="120.666666667" cy="250.081982957" r="1.55875" fill="black" id="hexcenter_2_3"/><circle cx="120.666666667" cy="333.22042172" r="1.55875" fill="black" id="hexcenter_2_4"/><circle cx="192.666666667" cy="42.2358860483" r="1.55875" fill="black" id="hexcenter_3_1"/><circle cx="192.666666667" cy="125.374324812" r="1.55875" fill="black" id="hexcenter_3_2"/><circle cx="192.666666667" cy="208.512763575" r="1.55875" fill="black" id="hexcenter_3_3"/><circle cx="192.666666667" cy="291.651202338" r="1.55875" fill="black" id="hexcenter_3_4"/><circle cx="264.666666667" cy="83.80510543" r="1.55875" fill="black" id="hexcenter_4_1"/><circle cx="264.666666667" cy="166.943544193" r="1.55875" fill="black" id="hexcenter_4_2"/><circle cx="264.666666667" cy="250.081982957" r="1.55875" fill="black" id="hexcenter_4_3"/><circle cx="264.666666667" cy="333.22042172" r="1.55875" fill="black" id="hexcenter_4_4"/></svg:g></svg>