<!-- Created with Inkscape (http://www.inkscape.org/) --><svg xmlns:dc="http://purl.org/dc/elements/1.1/" xmlns:cc="http://creativecommons.org/ns#" xmlns:rdf="http://www.w3.org/1999/02/22-rdf-syntax-ns#" xmlns:svg="http://www.w3.org/2000/svg" xmlns="http://www.w3.org/2000/svg" xmlns:sodipodi="http://sodipodi.sourceforge.net/DTD/sodipodi-0.dtd" xmlns:inkscape="http://www.inkscape.org/namespaces/inkscape" sodipodi:docname="test.svg" inkscape:version="0.92.2 (5c3e80d, 2017-08-06)" version="1.1" id="svg8084" viewBox="0.0 0.0 793.700787403 1122.51968501" height="1122.51968506" width="793.700787417">
  <sodipodi:namedview inkscape:window-maximized="1" inkscape:window-y="0" inkscape:window-x="0" inkscape:window-height="719" inkscape:window-width="1366" showgrid="false" inkscape:current-layer="svg8084" inkscape:document-units="px" inkscape:cy="714.45145" inkscape:cx="-113.30561" inkscape:zoom="0.7" inkscape:pageshadow="2" inkscape:pageopacity="0.0" borderopacity="1.0" bordercolor="#666666" pagecolor="#ffffff" id="base"/>
  <defs id="defs8086"/>
  <metadata id="metadata8089">
    <rdf:RDF>
      <cc:Work rdf:about="">
        <dc:format>image/svg+xml</dc:format>
        <dc:type rdf:resource="http://purl.org/dc/dcmitype/StillImage"/>
        <dc:title/>
      </cc:Work>
    </rdf:RDF>
  </metadata>
  <g transform="matrix(1.066667,0.000000,0.000000,1.066667,0.000000,0.000000)" id="layer1" inkscape:groupmode="layer" inkscape:label="Layer 1"/>
<svg:g inkscape:label="Hex Fill" inkscape:groupmode="layer"><polygon points="73.889760,1.889760 97.889760,43.458979 73.889760,85.028199 25.889760,85.028199 1.889760,43.458979 25.889760,1.889760" style="stroke:none;fill:#ffffff;fill-opacity:1;stroke-width:3.77952;stroke-linecap:round" id="hexfill_1_1"/><polygon points="73.889760,85.028199 97.889760,126.597418 73.889760,168.166638 25.889760,168.166638 1.889760,126.597418 25.889760,85.028199" style="stroke:none;fill:#ffffff;fill-opacity:1;stroke-width:3.77952;stroke-linecap:round" id="hexfill_1_2"/><polygon points="73.889760,168.166638 97.889760,209.735857 73.889760,251.305076 25.889760,251.305076 1.889760,209.735857 25.889760,168.166638" style="stroke:none;fill:#ffffff;fill-opacity:1;stroke-width:3.77952;stroke-linecap:round" id="hexfill_1_3"/><polygon points="73.889760,251.305076 97.889760,292.874296 73.889760,334.443515 25.889760,334.443515 1.889760,292.874296 25.889760,251.305076" style="stroke:none;fill:#ffffff;fill-opacity:1;stroke-width:3.77952;stroke-linecap:round" id="hexfill_1_4"/><polygon points="145.889760,43.458979 169.889760,85.028199 145.889760,126.597418 97.889760,126.597418 73.889760,85.028199 97.889760,43.458979" style="stroke:none;fill:#ffffff;fill-opacity:1;stroke-width:3.77952;stroke-linecap:round" id="hexfill_2_1"/><polygon points="145.889760,126.597418 169.889760,168.166638 145.889760,209.735857 97.889760,209.735857 73.889760,168.166638 97.889760,126.597418" style="stroke:none;fill:#ffffff;fill-opacity:1;stroke-width:3.77952;stroke-linecap:round" id="hexfill_2_2"/><polygon points="145.889760,209.735857 169.889760,251.305076 145.889760,292.874296 97.889760,292.874296 73.889760,251.305076 97.889760,209.735857" style="stroke:none;fill:#ffffff;fill-opacity:1;stroke-width:3.77952;stroke-linecap:round" id="hexfill_2_3"/><polygon points="145.889760,292.874296 169.889760,334.443515 145.889760,376.012734 97.889760,376.012734 73.889760,334.443515 97.889760,292.874296" style="stroke:none;fill:#ffffff;fill-opacity:1;stroke-width:3.77952;stroke-linecap:round" id="hexfill_2_4"/><polygon points="217.889760,1.889760 241.889760,43.458979 217.889760,85.028199 169.889760,85.028199 145.889760,43.458979 169.889760,1.889760" style="stroke:none;fill:#ffffff;fill-opacity:1;stroke-width:3.77952;stroke-linecap:round" id="hexfill_3_1"/><polygon points="217.889760,85.028199 241.889760,126.597418 217.889760,168.166638 169.889760,168.166638 145.889760,126.597418 169.889760,85.028199" style="stroke:none;fill:#ffffff;fill-opacity:1;stroke-width:3.77952;stroke-linecap:round" id="hexfill_3_2"/><polygon points="217.889760,168.166638 241.889760,209.735857 217.889760,251.305076 169.889760,251.305076 145.889760,209.735857 169.889760,168.166638" style="stroke:none;fill:#ffffff;fill-opacity:1;stroke-width:3.77952;stroke-linecap:round" id="hexfill_3_3"/><polygon points="217.889760,251.305076 241.889760,292.874296 217.889760,334.443515 169.889760,334.443515 145.889760,292.874296 169.889760,251.305076" style="stroke:none;fill:#ffffff;fill-opacity:1;stroke-width:3.77952;stroke-linecap:round" id="hexfill_3_4"/><polygon points="289.889760,43.458979 313.889760,85.028199 289.889760,126.597418 241.889760,126.597418 217.889760,85.028199 241.889760,43.458979" style="stroke:none;fill:#ffffff;fill-opacity:1;stroke-width:3.77952;stroke-linecap:round" id="hexfill_4_1"/><polygon points="289.889760,126.597418 313.889760,168.166638 289.889760,209.735857 241.889760,209.735857 217.889760,168.166638 241.889760,126.597418" style="stroke:none;fill:#ffffff;fill-opacity:1;stroke-width:3.77952;stroke-linecap:round" id="hexfill_4_2"/><polygon points="289.889760,209.735857 313.889760,251.305076 289.889760,292.874296 241.889760,292.874296 217.889760,251.305076 241.889760,209.735857" style="stroke:none;fill:#ffffff;fill-opacity:1;stroke-width:3.77952;stroke-linecap:round" id="hexfill_4_3"/><polygon points="289.889760,292.874296 313.889760,334.443515 289.889760,376.012734 241.889760,376.012734 217.889760,334.443515 241.889760,292.874296" style="stroke:none;fill:#ffffff;fill-opacity:1;stroke-width:3.77952;stroke-linecap:round" id="hexfill_4_4"/></svg:g><svg:g inkscape:label="Hex Circles" inkscape:groupmode="layer"><circle cx="49.88976" cy="43.45897938165306" r="41.569219381653056" fill="black" id="hexcircle_1_1"/><circle cx="49.88976" cy="126.59741814495916" r="41.569219381653056" fill="black" id="hexcircle_1_2"/><circle cx="49.88976" cy="209.73585690826528" r="41.569219381653056" fill="black" id="hexcircle_1_3"/><circle cx="49.88976" cy="292.8742956715714" r="41.569219381653056" fill="black" id="hexcircle_1_4"/><circle cx="121.88976" cy="85.02819876330611" r="41.569219381653056" fill="black" id="hexcircle_2_1"/><circle cx="121.88976" cy="168.16663752661222" r="41.569219381653056" fill="black" id="hexcircle_2_2"/><circle cx="121.88976" cy="251.30507628991833" r="41.569219381653056" fill="black" id="hexcircle_2_3"/><circle cx="121.88976" cy="334.4435150532245" r="41.569219381653056" fill="black" id="hexcircle_2_4"/><circle cx="193.88976" cy="43.45897938165306" r="41.569219381653056" fill="black" id="hexcircle_3_1"/><circle cx="193.88976" cy="126.59741814495916" r="41.569219381653056" fill="black" id="hexcircle_3_2"/><circle cx="193.88976" cy="209.73585690826528" r="41.569219381653056" fill="black" id="hexcircle_3_3"/><circle cx="193.88976" cy="292.8742956715714" r="41.569219381653056" fill="black" id="hexcircle_3_4"/><circle cx="265.88976" cy="85.02819876330611" r="41.569219381653056" fill="black" id="hexcircle_4_1"/><circle cx="265.88976" cy="168.16663752661222" r="41.569219381653056" fill="black" id="hexcircle_4_2"/><circle cx="265.88976" cy="251.30507628991833" r="41.569219381653056" fill="black" id="hexcircle_4_3"/><circle cx="265.88976" cy="334.4435150532245" r="41.569219381653056" fill="black" id="hexcircle_4_4"/></svg:g><svg:g inkscape:label="Hex Grid" inkscape:groupmode="layer" style="display:none"><line x1="25.88976" y1="1.88976" x2="73.88976" y2="1.88976" style="stroke:#000000; stroke-width:3.77952;stroke-linecap:round"/><line x1="25.88976" y1="1.88976" x2="1.88976" y2="43.45897938165306" style="stroke:#000000; stroke-width:3.77952;stroke-linecap:round"/><line x1="73.88976" y1="1.88976" x2="97.88976" y2="43.45897938165306" style="stroke:#000000; stroke-width:3.77952;stroke-linecap:round"/><line x1="1.88976" y1="43.45897938165306" x2="25.88976" y2="85.02819876330611" style="stroke:#000000; stroke-width:3.77952;stroke-linecap:round"/><line x1="25.88976" y1="85.02819876330611" x2="73.88976" y2="85.02819876330611" style="stroke:#000000; stroke-width:3.77952;stroke-linecap:round"/><line x1="25.88976" y1="85.02819876330611" x2="1.88976" y2="126.59741814495916" style="stroke:#000000; stroke-width:3.77952;stroke-linecap:round"/><line x1="1.88976" y1="126.59741814495916" x2="25.88976" y2="168.16663752661222" style="stroke:#000000; stroke-width:3.77952;stroke-linecap:round"/><line x1="25.88976" y1="168.16663752661222" x2="73.88976" y2="168.16663752661222" style="stroke:#000000; stroke-width:3.77952;stroke-linecap:round"/><line x1="25.88976" y1="168.16663752661222" x2="1.88976" y2="209.73585690826528" style="stroke:#000000; stroke-width:3.77952;stroke-linecap:round"/><line x1="1.88976" y1="209.73585690826528" x2="25.88976" y2="251.30507628991833" style="stroke:#000000; stroke-width:3.77952;stroke-linecap:round"/><line x1="25.88976" y1="251.30507628991833" x2="73.88976" y2="251.30507628991833" style="stroke:#000000; stroke-width:3.77952;stroke-linecap:round"/><line x1="25.88976" y1="251.30507628991833" x2="1.88976" y2="292.8742956715714" style="stroke:#000000; stroke-width:3.77952;stroke-linecap:round"/><line x1="1.88976" y1="292.8742956715714" x2="25.88976" y2="334.4435150532245" style="stroke:#000000; stroke-width:3.77952;stroke-linecap:round"/><line x1="25.88976" y1="334.4435150532245" x2="73.88976" y2="334.4435150532245" style="stroke:#000000; stroke-width:3.77952;stroke-linecap:round"/><line x1="97.88976" y1="43.45897938165306" x2="145.88976" y2="43.45897938165306" style="stroke:#000000; stroke-width:3.77952;stroke-linecap:round"/><line x1="97.88976" y1="43.45897938165306" x2="73.88976" y2="85.02819876330611" style="stroke:#000000; stroke-width:3.77952;stroke-linecap:round"/><line x1="73.88976" y1="85.02819876330611" x2="97.88976" y2="126.59741814495916" style="stroke:#000000; stroke-width:3.77952;stroke-linecap:round"/><line x1="97.88976" y1="126.59741814495916" x2="145.88976" y2="126.59741814495916" style="stroke:#000000; stroke-width:3.77952;stroke-linecap:round"/><line x1="97.88976" y1="126.59741814495916" x2="73.88976" y2="168.16663752661222" style="stroke:#000000; stroke-width:3.77952;stroke-linecap:round"/><line x1="73.88976" y1="168.16663752661222" x2="97.88976" y2="209.73585690826528" style="stroke:#000000; stroke-width:3.77952;stroke-linecap:round"/><line x1="97.88976" y1="209.73585690826528" x2="145.88976" y2="209.73585690826528" style="stroke:#000000; stroke-width:3.77952;stroke-linecap:round"/><line x1="97.88976" y1="209.73585690826528" x2="73.88976" y2="251.30507628991833" style="stroke:#000000; stroke-width:3.77952;stroke-linecap:round"/><line x1="73.88976" y1="251.30507628991833" x2="97.88976" y2="292.8742956715714" style="stroke:#000000; stroke-width:3.77952;stroke-linecap:round"/><line x1="97.88976" y1="292.8742956715714" x2="145.88976" y2="292.8742956715714" style="stroke:#000000; stroke-width:3.77952;stroke-linecap:round"/><line x1="97.88976" y1="292.8742956715714" x2="73.88976" y2="334.4435150532245" style="stroke:#000000; stroke-width:3.77952;stroke-linecap:round"/><line x1="73.88976" y1="334.4435150532245" x2="97.88976" y2="376.01273443487753" style="stroke:#000000; stroke-width:3.77952;stroke-linecap:round"/><line x1="169.88976" y1="334.4435150532245" x2="145.88976" y2="376.01273443487753" style="stroke:#000000; stroke-width:3.77952;stroke-linecap:round"/><line x1="97.88976" y1="376.01273443487753" x2="145.88976" y2="376.01273443487753" style="stroke:#000000; stroke-width:3.77952;stroke-linecap:round"/><line x1="169.88976" y1="1.88976" x2="217.88976" y2="1.88976" style="stroke:#000000; stroke-width:3.77952;stroke-linecap:round"/><line x1="169.88976" y1="1.88976" x2="145.88976" y2="43.45897938165306" style="stroke:#000000; stroke-width:3.77952;stroke-linecap:round"/><line x1="217.88976" y1="1.88976" x2="241.88976" y2="43.45897938165306" style="stroke:#000000; stroke-width:3.77952;stroke-linecap:round"/><line x1="145.88976" y1="43.45897938165306" x2="169.88976" y2="85.02819876330611" style="stroke:#000000; stroke-width:3.77952;stroke-linecap:round"/><line x1="169.88976" y1="85.02819876330611" x2="217.88976" y2="85.02819876330611" style="stroke:#000000; stroke-width:3.77952;stroke-linecap:round"/><line x1="169.88976" y1="85.02819876330611" x2="145.88976" y2="126.59741814495916" style="stroke:#000000; stroke-width:3.77952;stroke-linecap:round"/><line x1="145.88976" y1="126.59741814495916" x2="169.88976" y2="168.16663752661222" style="stroke:#000000; stroke-width:3.77952;stroke-linecap:round"/><line x1="169.88976" y1="168.16663752661222" x2="217.88976" y2="168.16663752661222" style="stroke:#000000; stroke-width:3.77952;stroke-linecap:round"/><line x1="169.88976" y1="168.16663752661222" x2="145.88976" y2="209.73585690826528" style="stroke:#000000; stroke-width:3.77952;stroke-linecap:round"/><line x1="145.88976" y1="209.73585690826528" x2="169.88976" y2="251.30507628991833" style="stroke:#000000; stroke-width:3.77952;stroke-linecap:round"/><line x1="169.88976" y1="251.30507628991833" x2="217.88976" y2="251.30507628991833" style="stroke:#000000; stroke-width:3.77952;stroke-linecap:round"/><line x1="169.88976" y1="251.30507628991833" x2="145.88976" y2="292.8742956715714" style="stroke:#000000; stroke-width:3.77952;stroke-linecap:round"/><line x1="145.88976" y1="292.8742956715714" x2="169.88976" y2="334.4435150532245" style="stroke:#000000; stroke-width:3.77952;stroke-linecap:round"/><line x1="169.88976" y1="334.4435150532245" x2="217.88976" y2="334.4435150532245" style="stroke:#000000; stroke-width:3.77952;stroke-linecap:round"/><line x1="241.88976" y1="43.45897938165306" x2="289.88976" y2="43.45897938165306" style="stroke:#000000; stroke-width:3.77952;stroke-linecap:round"/><line x1="241.88976" y1="43.45897938165306" x2="217.88976" y2="85.02819876330611" style="stroke:#000000; stroke-width:3.77952;stroke-linecap:round"/><line x1="217.88976" y1="85.02819876330611" x2="241.88976" y2="126.59741814495916" style="stroke:#000000; stroke-width:3.77952;stroke-linecap:round"/><line x1="241.88976" y1="126.59741814495916" x2="289.88976" y2="126.59741814495916" style="stroke:#000000; stroke-width:3.77952;stroke-linecap:round"/><line x1="241.88976" y1="126.59741814495916" x2="217.88976" y2="168.16663752661222" style="stroke:#000000; stroke-width:3.77952;stroke-linecap:round"/><line x1="217.88976" y1="168.16663752661222" x2="241.88976" y2="209.73585690826528" style="stroke:#000000; stroke-width:3.77952;stroke-linecap:round"/><line x1="241.88976" y1="209.73585690826528" x2="289.88976" y2="209.73585690826528" style="stroke:#000000; stroke-width:3.77952;stroke-linecap:round"/><line x1="241.88976" y1="209.73585690826528" x2="217.88976" y2="251.30507628991833" style="stroke:#000000; stroke-width:3.77952;stroke-linecap:round"/><line x1="217.88976" y1="251.30507628991833" x2="241.88976" y2="292.8742956715714" style="stroke:#000000; stroke-width:3.77952;stroke-linecap:round"/><line x1="241.88976" y1="292.8742956715714" x2="289.88976" y2="292.8742956715714" style="stroke:#000000; stroke-width:3.77952;stroke-linecap:round"/><line x1="241.88976" y1="292.8742956715714" x2="217.88976" y2="334.4435150532245" style="stroke:#000000; stroke-width:3.77952;stroke-linecap:round"/><line x1="217.88976" y1="334.4435150532245" x2="241.88976" y2="376.01273443487753" style="stroke:#000000; stroke-width:3.77952;stroke-linecap:round"/><line x1="313.88976" y1="334.4435150532245" x2="289.88976" y2="376.01273443487753" style="stroke:#000000; stroke-width:3.77952;stroke-linecap:round"/><line x1="241.88976" y1="376.01273443487753" x2="289.88976" y2="376.01273443487753" style="stroke:#000000; stroke-width:3.77952;stroke-linecap:round"/><line x1="289.88976" y1="43.45897938165306" x2="313.88976" y2="85.02819876330611" style="stroke:#000000; stroke-width:3.77952;stroke-linecap:round"/><line x1="313.88976" y1="85.02819876330611" x2="289.88976" y2="126.59741814495916" style="stroke:#000000; stroke-width:3.77952;stroke-linecap:round"/><line x1="289.88976" y1="126.59741814495916" x2="313.88976" y2="168.16663752661222" style="stroke:#000000; stroke-width:3.77952;stroke-linecap:round"/><line x1="313.88976" y1="168.16663752661222" x2="289.88976" y2="209.73585690826528" style="stroke:#000000; stroke-width:3.77952;stroke-linecap:round"/><line x1="289.88976" y1="209.73585690826528" x2="313.88976" y2="251.30507628991833" style="stroke:#000000; stroke-width:3.77952;stroke-linecap:round"/><line x1="313.88976" y1="251.30507628991833" x2="289.88976" y2="292.8742956715714" style="stroke:#000000; stroke-width:3.77952;stroke-linecap:round"/><line x1="289.88976" y1="292.8742956715714" x2="313.88976" y2="334.4435150532245" style="stroke:#000000; stroke-width:3.77952;stroke-linecap:round"/></svg:g><svg:g inkscape:label="Hex Vertices" inkscape:groupmode="layer"><line x1="25.88976" y1="1.88976" x2="28.289759999999998" y2="1.88976" style="stroke:#000000; stroke-width:3.77952;stroke-linecap:round"/><line x1="73.88976" y1="1.88976" x2="71.48975999999999" y2="1.88976" style="stroke:#000000; stroke-width:3.77952;stroke-linecap:round"/><line x1="25.88976" y1="1.88976" x2="24.68976" y2="3.968220969082653" style="stroke:#000000; stroke-width:3.77952;stroke-linecap:round"/><line x1="1.88976" y1="43.45897938165306" x2="3.08976" y2="41.3805184125704" style="stroke:#000000; stroke-width:3.77952;stroke-linecap:round"/><line x1="73.88976" y1="1.88976" x2="75.08976" y2="3.968220969082653" style="stroke:#000000; stroke-width:3.77952;stroke-linecap:round"/><line x1="97.88976" y1="43.45897938165306" x2="96.68975999999999" y2="41.3805184125704" style="stroke:#000000; stroke-width:3.77952;stroke-linecap:round"/><line x1="1.88976" y1="43.45897938165306" x2="3.08976" y2="45.537440350735714" style="stroke:#000000; stroke-width:3.77952;stroke-linecap:round"/><line x1="25.88976" y1="85.02819876330611" x2="24.68976" y2="82.94973779422345" style="stroke:#000000; stroke-width:3.77952;stroke-linecap:round"/><line x1="25.88976" y1="85.02819876330611" x2="28.289759999999998" y2="85.02819876330611" style="stroke:#000000; stroke-width:3.77952;stroke-linecap:round"/><line x1="73.88976" y1="85.02819876330611" x2="71.48975999999999" y2="85.02819876330611" style="stroke:#000000; stroke-width:3.77952;stroke-linecap:round"/><line x1="25.88976" y1="85.02819876330611" x2="24.68976" y2="87.10665973238876" style="stroke:#000000; stroke-width:3.77952;stroke-linecap:round"/><line x1="1.88976" y1="126.59741814495916" x2="3.08976" y2="124.51895717587651" style="stroke:#000000; stroke-width:3.77952;stroke-linecap:round"/><line x1="1.88976" y1="126.59741814495916" x2="3.08976" y2="128.67587911404183" style="stroke:#000000; stroke-width:3.77952;stroke-linecap:round"/><line x1="25.88976" y1="168.16663752661222" x2="24.68976" y2="166.08817655752958" style="stroke:#000000; stroke-width:3.77952;stroke-linecap:round"/><line x1="25.88976" y1="168.16663752661222" x2="28.289759999999998" y2="168.16663752661222" style="stroke:#000000; stroke-width:3.77952;stroke-linecap:round"/><line x1="73.88976" y1="168.16663752661222" x2="71.48975999999999" y2="168.16663752661222" style="stroke:#000000; stroke-width:3.77952;stroke-linecap:round"/><line x1="25.88976" y1="168.16663752661222" x2="24.68976" y2="170.24509849569486" style="stroke:#000000; stroke-width:3.77952;stroke-linecap:round"/><line x1="1.88976" y1="209.73585690826528" x2="3.08976" y2="207.65739593918263" style="stroke:#000000; stroke-width:3.77952;stroke-linecap:round"/><line x1="1.88976" y1="209.73585690826528" x2="3.08976" y2="211.81431787734792" style="stroke:#000000; stroke-width:3.77952;stroke-linecap:round"/><line x1="25.88976" y1="251.30507628991833" x2="24.68976" y2="249.2266153208357" style="stroke:#000000; stroke-width:3.77952;stroke-linecap:round"/><line x1="25.88976" y1="251.30507628991833" x2="28.289759999999998" y2="251.30507628991833" style="stroke:#000000; stroke-width:3.77952;stroke-linecap:round"/><line x1="73.88976" y1="251.30507628991833" x2="71.48975999999999" y2="251.30507628991833" style="stroke:#000000; stroke-width:3.77952;stroke-linecap:round"/><line x1="25.88976" y1="251.30507628991833" x2="24.68976" y2="253.38353725900097" style="stroke:#000000; stroke-width:3.77952;stroke-linecap:round"/><line x1="1.88976" y1="292.8742956715714" x2="3.08976" y2="290.7958347024888" style="stroke:#000000; stroke-width:3.77952;stroke-linecap:round"/><line x1="1.88976" y1="292.8742956715714" x2="3.08976" y2="294.95275664065406" style="stroke:#000000; stroke-width:3.77952;stroke-linecap:round"/><line x1="25.88976" y1="334.4435150532245" x2="24.68976" y2="332.36505408414183" style="stroke:#000000; stroke-width:3.77952;stroke-linecap:round"/><line x1="25.88976" y1="334.4435150532245" x2="28.289759999999998" y2="334.4435150532245" style="stroke:#000000; stroke-width:3.77952;stroke-linecap:round"/><line x1="73.88976" y1="334.4435150532245" x2="71.48975999999999" y2="334.4435150532245" style="stroke:#000000; stroke-width:3.77952;stroke-linecap:round"/><line x1="97.88976" y1="43.45897938165306" x2="100.28976" y2="43.45897938165306" style="stroke:#000000; stroke-width:3.77952;stroke-linecap:round"/><line x1="145.88976" y1="43.45897938165306" x2="143.48976" y2="43.45897938165306" style="stroke:#000000; stroke-width:3.77952;stroke-linecap:round"/><line x1="97.88976" y1="43.45897938165306" x2="96.68975999999999" y2="45.537440350735714" style="stroke:#000000; stroke-width:3.77952;stroke-linecap:round"/><line x1="73.88976" y1="85.02819876330611" x2="75.08976" y2="82.94973779422345" style="stroke:#000000; stroke-width:3.77952;stroke-linecap:round"/><line x1="73.88976" y1="85.02819876330611" x2="75.08976" y2="87.10665973238876" style="stroke:#000000; stroke-width:3.77952;stroke-linecap:round"/><line x1="97.88976" y1="126.59741814495916" x2="96.68975999999999" y2="124.51895717587651" style="stroke:#000000; stroke-width:3.77952;stroke-linecap:round"/><line x1="97.88976" y1="126.59741814495916" x2="100.28976" y2="126.59741814495916" style="stroke:#000000; stroke-width:3.77952;stroke-linecap:round"/><line x1="145.88976" y1="126.59741814495916" x2="143.48976" y2="126.59741814495916" style="stroke:#000000; stroke-width:3.77952;stroke-linecap:round"/><line x1="97.88976" y1="126.59741814495916" x2="96.68975999999999" y2="128.67587911404183" style="stroke:#000000; stroke-width:3.77952;stroke-linecap:round"/><line x1="73.88976" y1="168.16663752661222" x2="75.08976" y2="166.08817655752958" style="stroke:#000000; stroke-width:3.77952;stroke-linecap:round"/><line x1="73.88976" y1="168.16663752661222" x2="75.08976" y2="170.24509849569486" style="stroke:#000000; stroke-width:3.77952;stroke-linecap:round"/><line x1="97.88976" y1="209.73585690826528" x2="96.68975999999999" y2="207.65739593918263" style="stroke:#000000; stroke-width:3.77952;stroke-linecap:round"/><line x1="97.88976" y1="209.73585690826528" x2="100.28976" y2="209.73585690826528" style="stroke:#000000; stroke-width:3.77952;stroke-linecap:round"/><line x1="145.88976" y1="209.73585690826528" x2="143.48976" y2="209.73585690826528" style="stroke:#000000; stroke-width:3.77952;stroke-linecap:round"/><line x1="97.88976" y1="209.73585690826528" x2="96.68975999999999" y2="211.81431787734792" style="stroke:#000000; stroke-width:3.77952;stroke-linecap:round"/><line x1="73.88976" y1="251.30507628991833" x2="75.08976" y2="249.2266153208357" style="stroke:#000000; stroke-width:3.77952;stroke-linecap:round"/><line x1="73.88976" y1="251.30507628991833" x2="75.08976" y2="253.38353725900097" style="stroke:#000000; stroke-width:3.77952;stroke-linecap:round"/><line x1="97.88976" y1="292.8742956715714" x2="96.68975999999999" y2="290.7958347024888" style="stroke:#000000; stroke-width:3.77952;stroke-linecap:round"/><line x1="97.88976" y1="292.8742956715714" x2="100.28976" y2="292.8742956715714" style="stroke:#000000; stroke-width:3.77952;stroke-linecap:round"/><line x1="145.88976" y1="292.8742956715714" x2="143.48976" y2="292.8742956715714" style="stroke:#000000; stroke-width:3.77952;stroke-linecap:round"/><line x1="97.88976" y1="292.8742956715714" x2="96.68975999999999" y2="294.95275664065406" style="stroke:#000000; stroke-width:3.77952;stroke-linecap:round"/><line x1="73.88976" y1="334.4435150532245" x2="75.08976" y2="332.36505408414183" style="stroke:#000000; stroke-width:3.77952;stroke-linecap:round"/><line x1="73.88976" y1="334.4435150532245" x2="75.08976" y2="336.5219760223071" style="stroke:#000000; stroke-width:3.77952;stroke-linecap:round"/><line x1="97.88976" y1="376.01273443487753" x2="96.68975999999999" y2="373.9342734657949" style="stroke:#000000; stroke-width:3.77952;stroke-linecap:round"/><line x1="169.88976" y1="334.4435150532245" x2="168.68976" y2="336.5219760223071" style="stroke:#000000; stroke-width:3.77952;stroke-linecap:round"/><line x1="145.88976" y1="376.01273443487753" x2="147.08975999999998" y2="373.9342734657949" style="stroke:#000000; stroke-width:3.77952;stroke-linecap:round"/><line x1="97.88976" y1="376.01273443487753" x2="100.28976" y2="376.01273443487753" style="stroke:#000000; stroke-width:3.77952;stroke-linecap:round"/><line x1="145.88976" y1="376.01273443487753" x2="143.48976" y2="376.01273443487753" style="stroke:#000000; stroke-width:3.77952;stroke-linecap:round"/><line x1="169.88976" y1="1.88976" x2="172.28976" y2="1.88976" style="stroke:#000000; stroke-width:3.77952;stroke-linecap:round"/><line x1="217.88976" y1="1.88976" x2="215.48976" y2="1.88976" style="stroke:#000000; stroke-width:3.77952;stroke-linecap:round"/><line x1="169.88976" y1="1.88976" x2="168.68976" y2="3.968220969082653" style="stroke:#000000; stroke-width:3.77952;stroke-linecap:round"/><line x1="145.88976" y1="43.45897938165306" x2="147.08975999999998" y2="41.3805184125704" style="stroke:#000000; stroke-width:3.77952;stroke-linecap:round"/><line x1="217.88976" y1="1.88976" x2="219.08975999999998" y2="3.968220969082653" style="stroke:#000000; stroke-width:3.77952;stroke-linecap:round"/><line x1="241.88976" y1="43.45897938165306" x2="240.68976" y2="41.3805184125704" style="stroke:#000000; stroke-width:3.77952;stroke-linecap:round"/><line x1="145.88976" y1="43.45897938165306" x2="147.08975999999998" y2="45.537440350735714" style="stroke:#000000; stroke-width:3.77952;stroke-linecap:round"/><line x1="169.88976" y1="85.02819876330611" x2="168.68976" y2="82.94973779422345" style="stroke:#000000; stroke-width:3.77952;stroke-linecap:round"/><line x1="169.88976" y1="85.02819876330611" x2="172.28976" y2="85.02819876330611" style="stroke:#000000; stroke-width:3.77952;stroke-linecap:round"/><line x1="217.88976" y1="85.02819876330611" x2="215.48976" y2="85.02819876330611" style="stroke:#000000; stroke-width:3.77952;stroke-linecap:round"/><line x1="169.88976" y1="85.02819876330611" x2="168.68976" y2="87.10665973238876" style="stroke:#000000; stroke-width:3.77952;stroke-linecap:round"/><line x1="145.88976" y1="126.59741814495916" x2="147.08975999999998" y2="124.51895717587651" style="stroke:#000000; stroke-width:3.77952;stroke-linecap:round"/><line x1="145.88976" y1="126.59741814495916" x2="147.08975999999998" y2="128.67587911404183" style="stroke:#000000; stroke-width:3.77952;stroke-linecap:round"/><line x1="169.88976" y1="168.16663752661222" x2="168.68976" y2="166.08817655752958" style="stroke:#000000; stroke-width:3.77952;stroke-linecap:round"/><line x1="169.88976" y1="168.16663752661222" x2="172.28976" y2="168.16663752661222" style="stroke:#000000; stroke-width:3.77952;stroke-linecap:round"/><line x1="217.88976" y1="168.16663752661222" x2="215.48976" y2="168.16663752661222" style="stroke:#000000; stroke-width:3.77952;stroke-linecap:round"/><line x1="169.88976" y1="168.16663752661222" x2="168.68976" y2="170.24509849569486" style="stroke:#000000; stroke-width:3.77952;stroke-linecap:round"/><line x1="145.88976" y1="209.73585690826528" x2="147.08975999999998" y2="207.65739593918263" style="stroke:#000000; stroke-width:3.77952;stroke-linecap:round"/><line x1="145.88976" y1="209.73585690826528" x2="147.08975999999998" y2="211.81431787734792" style="stroke:#000000; stroke-width:3.77952;stroke-linecap:round"/><line x1="169.88976" y1="251.30507628991833" x2="168.68976" y2="249.2266153208357" style="stroke:#000000; stroke-width:3.77952;stroke-linecap:round"/><line x1="169.88976" y1="251.30507628991833" x2="172.28976" y2="251.30507628991833" style="stroke:#000000; stroke-width:3.77952;stroke-linecap:round"/><line x1="217.88976" y1="251.30507628991833" x2="215.48976" y2="251.30507628991833" style="stroke:#000000; stroke-width:3.77952;stroke-linecap:round"/><line x1="169.88976" y1="251.30507628991833" x2="168.68976" y2="253.38353725900097" style="stroke:#000000; stroke-width:3.77952;stroke-linecap:round"/><line x1="145.88976" y1="292.8742956715714" x2="147.08975999999998" y2="290.7958347024888" style="stroke:#000000; stroke-width:3.77952;stroke-linecap:round"/><line x1="145.88976" y1="292.8742956715714" x2="147.08975999999998" y2="294.95275664065406" style="stroke:#000000; stroke-width:3.77952;stroke-linecap:round"/><line x1="169.88976" y1="334.4435150532245" x2="168.68976" y2="332.36505408414183" style="stroke:#000000; stroke-width:3.77952;stroke-linecap:round"/><line x1="169.88976" y1="334.4435150532245" x2="172.28976" y2="334.4435150532245" style="stroke:#000000; stroke-width:3.77952;stroke-linecap:round"/><line x1="217.88976" y1="334.4435150532245" x2="215.48976" y2="334.4435150532245" style="stroke:#000000; stroke-width:3.77952;stroke-linecap:round"/><line x1="241.88976" y1="43.45897938165306" x2="244.28976" y2="43.45897938165306" style="stroke:#000000; stroke-width:3.77952;stroke-linecap:round"/><line x1="289.88976" y1="43.45897938165306" x2="287.48976000000005" y2="43.45897938165306" style="stroke:#000000; stroke-width:3.77952;stroke-linecap:round"/><line x1="241.88976" y1="43.45897938165306" x2="240.68976" y2="45.537440350735714" style="stroke:#000000; stroke-width:3.77952;stroke-linecap:round"/><line x1="217.88976" y1="85.02819876330611" x2="219.08975999999998" y2="82.94973779422345" style="stroke:#000000; stroke-width:3.77952;stroke-linecap:round"/><line x1="217.88976" y1="85.02819876330611" x2="219.08975999999998" y2="87.10665973238876" style="stroke:#000000; stroke-width:3.77952;stroke-linecap:round"/><line x1="241.88976" y1="126.59741814495916" x2="240.68976" y2="124.51895717587651" style="stroke:#000000; stroke-width:3.77952;stroke-linecap:round"/><line x1="241.88976" y1="126.59741814495916" x2="244.28976" y2="126.59741814495916" style="stroke:#000000; stroke-width:3.77952;stroke-linecap:round"/><line x1="289.88976" y1="126.59741814495916" x2="287.48976000000005" y2="126.59741814495916" style="stroke:#000000; stroke-width:3.77952;stroke-linecap:round"/><line x1="241.88976" y1="126.59741814495916" x2="240.68976" y2="128.67587911404183" style="stroke:#000000; stroke-width:3.77952;stroke-linecap:round"/><line x1="217.88976" y1="168.16663752661222" x2="219.08975999999998" y2="166.08817655752958" style="stroke:#000000; stroke-width:3.77952;stroke-linecap:round"/><line x1="217.88976" y1="168.16663752661222" x2="219.08975999999998" y2="170.24509849569486" style="stroke:#000000; stroke-width:3.77952;stroke-linecap:round"/><line x1="241.88976" y1="209.73585690826528" x2="240.68976" y2="207.65739593918263" style="stroke:#000000; stroke-width:3.77952;stroke-linecap:round"/><line x1="241.88976" y1="209.73585690826528" x2="244.28976" y2="209.73585690826528" style="stroke:#000000; stroke-width:3.77952;stroke-linecap:round"/><line x1="289.88976" y1="209.73585690826528" x2="287.48976000000005" y2="209.73585690826528" style="stroke:#000000; stroke-width:3.77952;stroke-linecap:round"/><line x1="241.88976" y1="209.73585690826528" x2="240.68976" y2="211.81431787734792" style="stroke:#000000; stroke-width:3.77952;stroke-linecap:round"/><line x1="217.88976" y1="251.30507628991833" x2="219.08975999999998" y2="249.2266153208357" style="stroke:#000000; stroke-width:3.77952;stroke-linecap:round"/><line x1="217.88976" y1="251.30507628991833" x2="219.08975999999998" y2="253.38353725900097" style="stroke:#000000; stroke-width:3.77952;stroke-linecap:round"/><line x1="241.88976" y1="292.8742956715714" x2="240.68976" y2="290.7958347024888" style="stroke:#000000; stroke-width:3.77952;stroke-linecap:round"/><line x1="241.88976" y1="292.8742956715714" x2="244.28976" y2="292.8742956715714" style="stroke:#000000; stroke-width:3.77952;stroke-linecap:round"/><line x1="289.88976" y1="292.8742956715714" x2="287.48976000000005" y2="292.8742956715714" style="stroke:#000000; stroke-width:3.77952;stroke-linecap:round"/><line x1="241.88976" y1="292.8742956715714" x2="240.68976" y2="294.95275664065406" style="stroke:#000000; stroke-width:3.77952;stroke-linecap:round"/><line x1="217.88976" y1="334.4435150532245" x2="219.08975999999998" y2="332.36505408414183" style="stroke:#000000; stroke-width:3.77952;stroke-linecap:round"/><line x1="217.88976" y1="334.4435150532245" x2="219.08975999999998" y2="336.5219760223071" style="stroke:#000000; stroke-width:3.77952;stroke-linecap:round"/><line x1="241.88976" y1="376.01273443487753" x2="240.68976" y2="373.9342734657949" style="stroke:#000000; stroke-width:3.77952;stroke-linecap:round"/><line x1="313.88976" y1="334.4435150532245" x2="312.68976000000004" y2="336.5219760223071" style="stroke:#000000; stroke-width:3.77952;stroke-linecap:round"/><line x1="289.88976" y1="376.01273443487753" x2="291.08976" y2="373.9342734657949" style="stroke:#000000; stroke-width:3.77952;stroke-linecap:round"/><line x1="241.88976" y1="376.01273443487753" x2="244.28976" y2="376.01273443487753" style="stroke:#000000; stroke-width:3.77952;stroke-linecap:round"/><line x1="289.88976" y1="376.01273443487753" x2="287.48976000000005" y2="376.01273443487753" style="stroke:#000000; stroke-width:3.77952;stroke-linecap:round"/><line x1="289.88976" y1="43.45897938165306" x2="291.08976" y2="45.537440350735714" style="stroke:#000000; stroke-width:3.77952;stroke-linecap:round"/><line x1="313.88976" y1="85.02819876330611" x2="312.68976000000004" y2="82.94973779422345" style="stroke:#000000; stroke-width:3.77952;stroke-linecap:round"/><line x1="313.88976" y1="85.02819876330611" x2="312.68976000000004" y2="87.10665973238876" style="stroke:#000000; stroke-width:3.77952;stroke-linecap:round"/><line x1="289.88976" y1="126.59741814495916" x2="291.08976" y2="124.51895717587651" style="stroke:#000000; stroke-width:3.77952;stroke-linecap:round"/><line x1="289.88976" y1="126.59741814495916" x2="291.08976" y2="128.67587911404183" style="stroke:#000000; stroke-width:3.77952;stroke-linecap:round"/><line x1="313.88976" y1="168.16663752661222" x2="312.68976000000004" y2="166.08817655752958" style="stroke:#000000; stroke-width:3.77952;stroke-linecap:round"/><line x1="313.88976" y1="168.16663752661222" x2="312.68976000000004" y2="170.24509849569486" style="stroke:#000000; stroke-width:3.77952;stroke-linecap:round"/><line x1="289.88976" y1="209.73585690826528" x2="291.08976" y2="207.65739593918263" style="stroke:#000000; stroke-width:3.77952;stroke-linecap:round"/><line x1="289.88976" y1="209.73585690826528" x2="291.08976" y2="211.81431787734792" style="stroke:#000000; stroke-width:3.77952;stroke-linecap:round"/><line x1="313.88976" y1="251.30507628991833" x2="312.68976000000004" y2="249.2266153208357" style="stroke:#000000; stroke-width:3.77952;stroke-linecap:round"/><line x1="313.88976" y1="251.30507628991833" x2="312.68976000000004" y2="253.38353725900097" style="stroke:#000000; stroke-width:3.77952;stroke-linecap:round"/><line x1="289.88976" y1="292.8742956715714" x2="291.08976" y2="290.7958347024888" style="stroke:#000000; stroke-width:3.77952;stroke-linecap:round"/><line x1="289.88976" y1="292.8742956715714" x2="291.08976" y2="294.95275664065406" style="stroke:#000000; stroke-width:3.77952;stroke-linecap:round"/><line x1="313.88976" y1="334.4435150532245" x2="312.68976000000004" y2="332.36505408414183" style="stroke:#000000; stroke-width:3.77952;stroke-linecap:round"/></svg:g><svg:g inkscape:label="Hex Coordinates" inkscape:groupmode="layer"><text x="49.88976" y="74.63589391789284" style="text-align:center;text-anchor:middle;font-size:8.000000pt">0101</text><text x="49.88976" y="157.77433268119896" style="text-align:center;text-anchor:middle;font-size:8.000000pt">0102</text><text x="49.88976" y="240.91277144450507" style="text-align:center;text-anchor:middle;font-size:8.000000pt">0103</text><text x="49.88976" y="324.0512102078112" style="text-align:center;text-anchor:middle;font-size:8.000000pt">0104</text><text x="121.88976" y="116.2051132995459" style="text-align:center;text-anchor:middle;font-size:8.000000pt">0201</text><text x="121.88976" y="199.343552062852" style="text-align:center;text-anchor:middle;font-size:8.000000pt">0202</text><text x="121.88976" y="282.48199082615815" style="text-align:center;text-anchor:middle;font-size:8.000000pt">0203</text><text x="121.88976" y="365.62042958946427" style="text-align:center;text-anchor:middle;font-size:8.000000pt">0204</text><text x="193.88976" y="74.63589391789284" style="text-align:center;text-anchor:middle;font-size:8.000000pt">0301</text><text x="193.88976" y="157.77433268119896" style="text-align:center;text-anchor:middle;font-size:8.000000pt">0302</text><text x="193.88976" y="240.91277144450507" style="text-align:center;text-anchor:middle;font-size:8.000000pt">0303</text><text x="193.88976" y="324.0512102078112" style="text-align:center;text-anchor:middle;font-size:8.000000pt">0304</text><text x="265.88976" y="116.2051132995459" style="text-align:center;text-anchor:middle;font-size:8.000000pt">0401</text><text x="265.88976" y="199.343552062852" style="text-align:center;text-anchor:middle;font-size:8.000000pt">0402</text><text x="265.88976" y="282.48199082615815" style="text-align:center;text-anchor:middle;font-size:8.000000pt">0403</text><text x="265.88976" y="365.62042958946427" style="text-align:center;text-anchor:middle;font-size:8.000000pt">0404</text></svg:g><svg:g inkscape:label="Hex Centerdots" inkscape:groupmode="layer"><circle cx="49.88976" cy="43.45897938165306" r="4.4184950999999995" fill="black" id="hexcenter_1_1"/><circle cx="49.88976" cy="126.59741814495916" r="4.4184950999999995" fill="black" id="hexcenter_1_2"/><circle cx="49.88976" cy="209.73585690826528" r="4.4184950999999995" fill="black" id="hexcenter_1_3"/><circle cx="49.88976" cy="292.8742956715714" r="4.4184950999999995" fill="black" id="hexcenter_1_4"/><circle cx="121.88976" cy="85.02819876330611" r="4.4184950999999995" fill="black" id="hexcenter_2_1"/><circle cx="121.88976" cy="168.16663752661222" r="4.4184950999999995" fill="black" id="hexcenter_2_2"/><circle cx="121.88976" cy="251.30507628991833" r="4.4184950999999995" fill="black" id="hexcenter_2_3"/><circle cx="121.88976" cy="334.4435150532245" r="4.4184950999999995" fill="black" id="hexcenter_2_4"/><circle cx="193.88976" cy="43.45897938165306" r="4.4184950999999995" fill="black" id="hexcenter_3_1"/><circle cx="193.88976" cy="126.59741814495916" r="4.4184950999999995" fill="black" id="hexcenter_3_2"/><circle cx="193.88976" cy="209.73585690826528" r="4.4184950999999995" fill="black" id="hexcenter_3_3"/><circle cx="193.88976" cy="292.8742956715714" r="4.4184950999999995" fill="black" id="hexcenter_3_4"/><circle cx="265.88976" cy="85.02819876330611" r="4.4184950999999995" fill="black" id="hexcenter_4_1"/><circle cx="265.88976" cy="168.16663752661222" r="4.4184950999999995" fill="black" id="hexcenter_4_2"/><circle cx="265.88976" cy="251.30507628991833" r="4.4184950999999995" fill="black" id="hexcenter_4_3"/><circle cx="265.88976" cy="334.4435150532245" r="4.4184950999999995" fill="black" id="hexcenter_4_4"/></svg:g></svg>